<?xml version="1.0" encoding="utf-8"?>
<!-- Generator: Adobe Illustrator 15.0.0, SVG Export Plug-In . SVG Version: 6.00 Build 0)  -->
<!DOCTYPE svg PUBLIC "-//W3C//DTD SVG 1.1//EN" "http://www.w3.org/Graphics/SVG/1.1/DTD/svg11.dtd">
<svg version="1.1" xmlns="http://www.w3.org/2000/svg" xmlns:xlink="http://www.w3.org/1999/xlink" x="0px" y="0px" width="800px"
	 height="800px" viewBox="0 0 800 800" enable-background="new 0 0 800 800" xml:space="preserve">
<g id="Layer_3" display="none">
	<circle display="inline" fill="#FF0000" cx="400" cy="400" r="350"/>
	<path display="inline" fill="#FFFFFF" d="M228.427,282.501c0,0-55.133,31.829-71.272,53.792
		c-16.135,21.965-59.613,65.443-62.753,73.511l20.62,10.758c0,0-17.48-1.796-20.62,0c-3.137,1.796-1.345,7.175,5.378,10.756
		c6.723,3.583,56.482,32.271,80.239,35.411c0,0,17.479,16.586,76.198,28.688c0,0,10.311,83.826,96.82,94.582
		c0,0-10.311-13.446-3.588-44.822c6.724-31.377-13.446-37.208-43.925-45.275c0,0,99.063,7.618,129.096,1.787
		c0,0,21.514,40.8,79.335,31.377c57.821-9.412,73.063-21.956,92.338-27.785c0,0-17.931-4.936-33.173-43.93
		c-15.237-38.992-39.891-12.994-53.786-15.242c0,0,44.375-21.963,73.96-2.236c29.585,19.717,77.995,56.924,103.543,32.721
		c0,0,8.967-0.893,9.863-40.348c0.893-39.443,0-97.712,0-97.712s-6.275-58.269-49.754-34.96
		c-43.483,23.31-61.409,45.718-76.204,48.406c-14.79,2.688-36.308,8.971-55.133-4.484c0,0,25.101,3.14,36.309-6.724
		c11.202-9.854,25.101-28.235,31.376-37.198c6.276-8.969,24.204-39.895,33.168-40.789c0,0-104.887-9.421-132.229-19.275
		c-27.344-9.863-128.496-42.886-185.572-30.933C252.252,224.39,223.941,238.572,228.427,282.501z"/>
</g>
<g id="Layer_2" display="none">
	<g display="inline">
		<circle fill="#FFFFFF" cx="400" cy="400" r="350"/>
		<path fill="#009696" d="M400,760c-48.595,0-95.742-9.52-140.131-28.295c-42.87-18.132-81.369-44.088-114.427-77.146
			s-59.015-71.558-77.147-114.428C49.52,495.742,40,448.596,40,400c0-48.595,9.52-95.742,28.294-140.131
			c18.132-42.87,44.088-81.369,77.147-114.427s71.558-59.015,114.427-77.147C304.258,49.52,351.405,40,400,40
			c48.596,0,95.742,9.52,140.131,28.294c42.87,18.132,81.369,44.088,114.428,77.147s59.015,71.558,77.146,114.427
			C750.48,304.258,760,351.405,760,400c0,48.596-9.52,95.742-28.295,140.131c-18.132,42.87-44.088,81.369-77.146,114.428
			s-71.558,59.015-114.428,77.146C495.742,750.48,448.596,760,400,760z M400,60C212.523,60,60,212.523,60,400s152.523,340,340,340
			s340-152.523,340-340S587.477,60,400,60z"/>
	</g>
	<path display="inline" fill="#009696" d="M228.427,282.501c0,0-55.133,31.83-71.272,53.792
		c-16.135,21.965-59.613,65.443-62.753,73.511l20.62,10.758c0,0-17.48-1.796-20.62,0c-3.137,1.796-1.345,7.175,5.378,10.756
		c6.723,3.583,56.482,32.271,80.239,35.411c0,0,17.479,16.586,76.198,28.688c0,0,10.311,83.826,96.82,94.582
		c0,0-10.311-13.446-3.588-44.822c6.724-31.377-13.446-37.208-43.925-45.275c0,0,99.063,7.618,129.096,1.787
		c0,0,21.514,40.8,79.335,31.377c57.821-9.412,73.063-21.956,92.338-27.785c0,0-17.931-4.936-33.173-43.93
		c-15.237-38.992-39.891-12.994-53.786-15.242c0,0,44.375-21.963,73.96-2.236c29.585,19.717,77.995,56.924,103.543,32.721
		c0,0,8.967-0.893,9.863-40.348c0.893-39.443,0-97.712,0-97.712s-6.275-58.269-49.754-34.959
		c-43.483,23.309-61.409,45.717-76.204,48.406c-14.79,2.688-36.308,8.971-55.133-4.484c0,0,25.101,3.14,36.309-6.724
		c11.202-9.854,25.101-28.236,31.376-37.198c6.276-8.97,24.204-39.896,33.168-40.789c0,0-104.887-9.421-132.229-19.275
		c-27.344-9.863-128.496-42.886-185.572-30.933C252.252,224.39,223.941,238.572,228.427,282.501z"/>
</g>
<g id="Layer_1">
	<circle fill="#009696" cx="400" cy="400" r="350"/>
	<path fill="#FFFFFF" d="M228.427,282.501c0,0-55.133,31.83-71.273,53.792c-16.134,21.965-59.613,65.443-62.753,73.511l20.62,10.758
		c0,0-17.48-1.796-20.62,0c-3.137,1.796-1.345,7.175,5.378,10.756c6.723,3.583,56.482,32.271,80.238,35.411
		c0,0,17.479,16.586,76.199,28.688c0,0,10.311,83.826,96.82,94.582c0,0-10.311-13.446-3.588-44.822
		c6.723-31.377-13.446-37.208-43.924-45.275c0,0,99.063,7.618,129.095,1.787c0,0,21.514,40.8,79.335,31.377
		c57.821-9.412,73.063-21.956,92.338-27.785c0,0-17.931-4.936-33.173-43.93c-15.237-38.992-39.891-12.994-53.786-15.242
		c0,0,44.375-21.963,73.96-2.236c29.585,19.717,77.995,56.924,103.543,32.721c0,0,8.967-0.893,9.863-40.348
		c0.893-39.443,0-97.712,0-97.712s-6.275-58.269-49.754-34.959c-43.483,23.309-61.409,45.717-76.204,48.405
		c-14.79,2.688-36.308,8.971-55.133-4.484c0,0,25.101,3.14,36.309-6.723c11.202-9.854,25.101-28.236,31.376-37.198
		c6.276-8.97,24.204-39.896,33.168-40.789c0,0-104.887-9.421-132.229-19.275c-27.344-9.863-128.497-42.886-185.573-30.933
		C252.252,224.39,223.941,238.572,228.427,282.501z"/>
</g>
</svg>
