<?xml version="1.0" encoding="utf-8"?>
<!-- Generator: Adobe Illustrator 15.0.0, SVG Export Plug-In . SVG Version: 6.00 Build 0)  -->
<!DOCTYPE svg PUBLIC "-//W3C//DTD SVG 1.1//EN" "http://www.w3.org/Graphics/SVG/1.1/DTD/svg11.dtd">
<svg version="1.1" xmlns="http://www.w3.org/2000/svg" xmlns:xlink="http://www.w3.org/1999/xlink" x="0px" y="0px" width="800px"
	 height="800px" viewBox="0 0 800 800" enable-background="new 0 0 800 800" xml:space="preserve">
<g id="Layer_3" display="none">
	<circle display="inline" fill="#FF0000" cx="400" cy="400" r="350"/>
	<path display="inline" fill="#FFFFFF" d="M661.519,451.171l0.365-0.721c0,0-0.426-0.234-1.197-0.666
		c-0.608-1.52-0.244-2.811-0.244-2.811c11.354-13.569-0.8-25.237-0.8-25.237c2.241,4.732,3.199,6.311-2.561,13.251
		c-5.106,6.16-4.176,9.824-3.898,10.578c-21.724-12.321-78.127-45.026-99.115-64.21l2.07-5.215
		c7.902-0.236,8.709-9.314,7.369-10.878c-1.76-2.052-1.12-4.259-1.12-4.259c11.354-13.569-0.801-25.239-0.801-25.239
		c2.24,4.733,3.198,6.31-2.561,13.252c-5.759,6.941-3.84,10.726-3.84,10.726h-3.701c-16.075-13.752-50.796-43.834-62.459-56.927
		c11.852,3.391,13.165-8.469,11.614-10.278c-1.758-2.052-1.12-4.259-1.12-4.259c11.358-13.57-0.799-25.239-0.799-25.239
		c2.241,4.733,3.198,6.31-2.56,13.251s-3.838,10.727-3.838,10.727h-5.502c-10.545-12.433-80.014-94.761-81.197-107.589
		c-1.093-11.857-4.516-56.371-5.492-69.115v-3.453c0,0-0.052,0.628-0.131,1.729c-0.085-1.1-0.134-1.729-0.134-1.729v3.453
		c-0.978,12.745-4.401,57.258-5.496,69.115c-1.183,12.828-70.648,95.156-81.195,107.589h-5.498c0,0,1.919-3.785-3.842-10.727
		c-5.759-6.942-4.799-8.519-2.56-13.251c0,0-12.151,11.669-0.797,25.239c0,0,0.636,2.207-1.122,4.259
		c-1.55,1.81-0.233,13.669,11.618,10.278c-11.661,13.093-46.387,43.175-62.461,56.927h-3.701c0,0,1.919-3.784-3.84-10.726
		c-5.759-6.942-4.801-8.519-2.561-13.252c0,0-12.154,11.669-0.8,25.239c0,0,0.638,2.207-1.119,4.259
		c-1.343,1.564-0.534,10.642,7.369,10.878l2.067,5.215c-20.988,19.184-77.391,51.889-99.114,64.21
		c0.276-0.754,1.21-4.418-3.898-10.578c-5.759-6.94-4.801-8.519-2.562-13.251c0,0-12.154,11.668-0.799,25.237
		c0,0,0.364,1.291-0.243,2.811c-0.773,0.432-1.195,0.666-1.195,0.666l0.363,0.721c-0.017,0.021-0.026,0.041-0.045,0.062
		c-1.225,1.432-0.658,9.125,5.469,10.631l0.45,0.891l28.314,8.992v35.179v126.203h23.993V506.926h5.599
		c15.517-28.394,39.829-3.945,39.829-3.945c27.993-24.923,38.551,6.154,38.551,6.154c2.529-0.684,4.91-1.453,7.199-2.275v126.27
		h23.992V492.816c18.078-16.304,22.291-38.569,28.153-52.46c8.319-19.72,15.515,2.207,15.515,2.207
		c8.639,11.041,13.76-4.418,13.76-4.418c8.382-28.937,30.659-0.074,30.739-0.182c0.075,0.107,0.131-0.178,0.131-0.178
		c2.496-3.358,22.224-28.577,30.608,0.359c0,0,5.117,15.459,13.755,4.418c0,0,7.196-21.927,15.515-2.207
		c5.862,13.891,10.079,36.156,28.155,52.46v140.312h23.995v-126.27c2.288,0.822,4.669,1.592,7.196,2.275
		c0,0,10.558-31.077,38.553-6.154c0,0,24.312-24.448,39.826,3.945h5.6v126.203h23.996V506.926v-35.179l28.313-8.992l0.448-0.891
		c6.129-1.504,6.696-9.199,5.47-10.631C661.544,451.212,661.535,451.192,661.519,451.171z"/>
	<path display="inline" fill="#FFFFFF" d="M469.753,621.564c-1.579-6.525-11.089-7.973-11.089-7.973l-4.103-0.646
		c2.975-7.875,4.078-19.889,4.101-20.174h0.018v-41.381c0,0,2.004-9.41-16.949-11.539c-18.957-2.127-27.341-2.947-28.252-6.711
		s-0.183-9.166-0.183-9.166l4.191-7.199l-0.362,13.91c0,0,0.728,1.801,2.915,1.311l0.729-14.076c0,0,4.192-4.746,4.922-9.656
		c0.729-4.91,1.456-15.221,1.456-15.221s-3.462-0.164-4.555,0.98c0,0,2.914-13.093-7.109-17.183
		c-3.41-1.393-5.195-2.084-6.068-2.391l-1.952-9.721l-2.004-0.82v-5.729l-1.642-0.816l-2.913-10.805l-2.918,10.805l-1.642,0.816
		v5.729l-2.004,0.82l-1.952,9.721c-0.873,0.307-2.656,0.998-6.067,2.391c-10.025,4.09-7.108,17.183-7.108,17.183
		c-1.095-1.145-4.558-0.98-4.558-0.98s0.73,10.311,1.459,15.221s4.922,9.656,4.922,9.656l0.73,14.076
		c2.185,0.49,2.915-1.311,2.915-1.311l-0.364-13.91l4.191,7.199c0,0,0.729,5.402-0.184,9.166c-0.909,3.764-9.295,4.584-28.251,6.711
		c-18.954,2.129-16.949,11.539-16.949,11.539v51.393l-4.558,4.826c-14.216,5.732-6.561,25.535-6.561,25.535h68.897v-0.016h67.633
		C468.537,633.129,470.861,626.146,469.753,621.564z M361.482,619.504c0,0,7.201-36.824,6.546-47.463
		C368.028,572.041,386.197,599.209,361.482,619.504z M439.229,601.502l-6.549,5.402h-2.618c-14.73-24.225,6.873-45.012,6.873-45.012
		C439.391,568.113,439.229,601.502,439.229,601.502z"/>
</g>
<g id="Layer_1" display="none">
	<g display="inline">
		<g>
			<circle fill="#FFFFFF" cx="400" cy="400" r="350"/>
			<path fill="#009696" d="M400,760c-48.595,0-95.742-9.52-140.131-28.295c-42.87-18.132-81.369-44.088-114.427-77.146
				s-59.015-71.558-77.147-114.428C49.52,495.742,40,448.596,40,400c0-48.595,9.52-95.742,28.294-140.131
				c18.132-42.87,44.088-81.369,77.147-114.427s71.558-59.015,114.427-77.147C304.258,49.52,351.405,40,400,40
				c48.596,0,95.742,9.52,140.131,28.294c42.87,18.132,81.369,44.088,114.428,77.147s59.015,71.558,77.146,114.427
				C750.48,304.258,760,351.405,760,400c0,48.596-9.52,95.742-28.295,140.131c-18.132,42.87-44.088,81.369-77.146,114.428
				s-71.558,59.015-114.428,77.146C495.742,750.48,448.596,760,400,760z M400,60C212.523,60,60,212.523,60,400s152.523,340,340,340
				s340-152.523,340-340S587.477,60,400,60z"/>
		</g>
	</g>
	<path display="inline" fill="#009696" d="M661.519,451.171l0.365-0.721c0,0-0.426-0.234-1.197-0.666
		c-0.608-1.52-0.244-2.811-0.244-2.811c11.354-13.569-0.8-25.237-0.8-25.237c2.241,4.732,3.199,6.311-2.561,13.251
		c-5.106,6.16-4.176,9.824-3.898,10.578c-21.724-12.321-78.127-45.026-99.115-64.21l2.07-5.215
		c7.902-0.236,8.709-9.314,7.369-10.878c-1.76-2.052-1.12-4.259-1.12-4.259c11.354-13.569-0.801-25.239-0.801-25.239
		c2.24,4.733,3.198,6.31-2.561,13.252c-5.759,6.941-3.84,10.726-3.84,10.726h-3.701c-16.075-13.752-50.796-43.834-62.459-56.927
		c11.852,3.391,13.165-8.469,11.614-10.278c-1.758-2.052-1.12-4.259-1.12-4.259c11.358-13.57-0.799-25.239-0.799-25.239
		c2.241,4.733,3.198,6.31-2.56,13.251s-3.838,10.727-3.838,10.727h-5.502c-10.545-12.433-80.014-94.761-81.197-107.589
		c-1.093-11.857-4.516-56.371-5.492-69.115v-3.453c0,0-0.052,0.628-0.131,1.729c-0.085-1.1-0.134-1.729-0.134-1.729v3.453
		c-0.978,12.745-4.401,57.258-5.496,69.115c-1.183,12.828-70.648,95.156-81.195,107.589h-5.498c0,0,1.919-3.785-3.842-10.727
		c-5.759-6.942-4.799-8.519-2.56-13.251c0,0-12.151,11.669-0.797,25.239c0,0,0.636,2.207-1.122,4.259
		c-1.55,1.81-0.233,13.669,11.618,10.278c-11.661,13.093-46.387,43.175-62.461,56.927h-3.701c0,0,1.919-3.784-3.84-10.726
		c-5.759-6.942-4.801-8.519-2.561-13.252c0,0-12.154,11.669-0.8,25.239c0,0,0.638,2.207-1.119,4.259
		c-1.343,1.564-0.534,10.642,7.369,10.878l2.067,5.215c-20.988,19.184-77.391,51.889-99.114,64.21
		c0.276-0.754,1.21-4.418-3.898-10.578c-5.759-6.94-4.801-8.519-2.562-13.251c0,0-12.154,11.668-0.799,25.237
		c0,0,0.364,1.291-0.243,2.811c-0.773,0.432-1.195,0.666-1.195,0.666l0.363,0.721c-0.017,0.021-0.026,0.041-0.045,0.062
		c-1.225,1.432-0.658,9.125,5.469,10.631l0.45,0.891l28.314,8.992v35.179v126.203h23.993V506.926h5.599
		c15.517-28.394,39.829-3.945,39.829-3.945c27.993-24.923,38.551,6.154,38.551,6.154c2.529-0.684,4.91-1.453,7.199-2.275v126.27
		h23.992V492.816c18.078-16.304,22.291-38.569,28.153-52.46c8.319-19.72,15.515,2.207,15.515,2.207
		c8.639,11.041,13.76-4.418,13.76-4.418c8.382-28.937,30.659-0.074,30.739-0.182c0.075,0.107,0.131-0.178,0.131-0.178
		c2.496-3.358,22.224-28.577,30.608,0.359c0,0,5.117,15.459,13.755,4.418c0,0,7.196-21.927,15.515-2.207
		c5.862,13.891,10.079,36.156,28.155,52.46v140.312h23.995v-126.27c2.288,0.822,4.669,1.592,7.196,2.275
		c0,0,10.558-31.077,38.553-6.154c0,0,24.312-24.448,39.826,3.945h5.6v126.203h23.996V506.926v-35.179l28.313-8.992l0.448-0.891
		c6.129-1.504,6.696-9.199,5.47-10.631C661.544,451.212,661.535,451.192,661.519,451.171z"/>
	<path display="inline" fill="#009696" d="M469.753,621.564c-1.579-6.525-11.089-7.973-11.089-7.973l-4.103-0.646
		c2.975-7.875,4.078-19.889,4.101-20.174h0.018v-41.381c0,0,2.004-9.41-16.949-11.539c-18.957-2.127-27.341-2.947-28.252-6.711
		s-0.183-9.166-0.183-9.166l4.191-7.199l-0.362,13.91c0,0,0.728,1.801,2.915,1.311l0.729-14.076c0,0,4.192-4.746,4.922-9.656
		c0.729-4.91,1.456-15.221,1.456-15.221s-3.462-0.164-4.555,0.98c0,0,2.914-13.093-7.109-17.183
		c-3.41-1.393-5.195-2.084-6.068-2.391l-1.952-9.721l-2.004-0.82v-5.729l-1.642-0.816l-2.914-10.805l-2.918,10.805l-1.642,0.816
		v5.729l-2.004,0.82l-1.952,9.721c-0.873,0.307-2.656,0.998-6.067,2.391c-10.025,4.09-7.108,17.183-7.108,17.183
		c-1.095-1.145-4.558-0.98-4.558-0.98s0.73,10.311,1.459,15.221s4.922,9.656,4.922,9.656l0.73,14.076
		c2.185,0.49,2.915-1.311,2.915-1.311l-0.364-13.91l4.191,7.199c0,0,0.729,5.402-0.184,9.166c-0.909,3.764-9.295,4.584-28.251,6.711
		c-18.954,2.129-16.949,11.539-16.949,11.539v51.393l-4.558,4.826c-14.216,5.732-6.561,25.535-6.561,25.535h68.897v-0.016h67.633
		C468.537,633.129,470.861,626.146,469.753,621.564z M361.482,619.504c0,0,7.201-36.824,6.546-47.463
		C368.028,572.041,386.197,599.209,361.482,619.504z M439.229,601.502l-6.549,5.402h-2.618c-14.73-24.225,6.873-45.012,6.873-45.012
		C439.391,568.113,439.229,601.502,439.229,601.502z"/>
</g>
<g id="Layer_2">
	<circle fill="#009696" cx="400" cy="400" r="350"/>
	<path fill="#FFFFFF" d="M661.519,451.171l0.365-0.721c0,0-0.426-0.234-1.197-0.666c-0.608-1.52-0.244-2.811-0.244-2.811
		c11.354-13.569-0.8-25.237-0.8-25.237c2.241,4.732,3.199,6.311-2.561,13.251c-5.106,6.16-4.176,9.824-3.898,10.578
		c-21.724-12.321-78.127-45.026-99.115-64.21l2.07-5.215c7.902-0.236,8.709-9.314,7.369-10.878c-1.76-2.052-1.12-4.259-1.12-4.259
		c11.354-13.569-0.801-25.239-0.801-25.239c2.24,4.733,3.198,6.31-2.561,13.252c-5.759,6.941-3.84,10.726-3.84,10.726h-3.701
		c-16.075-13.752-50.796-43.834-62.459-56.927c11.852,3.391,13.165-8.469,11.614-10.278c-1.758-2.052-1.12-4.259-1.12-4.259
		c11.358-13.57-0.799-25.239-0.799-25.239c2.241,4.733,3.198,6.31-2.56,13.251s-3.838,10.727-3.838,10.727h-5.502
		c-10.545-12.433-80.014-94.761-81.197-107.589c-1.093-11.857-4.516-56.371-5.492-69.115v-3.453c0,0-0.052,0.628-0.131,1.729
		c-0.085-1.1-0.134-1.729-0.134-1.729v3.453c-0.978,12.745-4.401,57.258-5.496,69.115c-1.183,12.828-70.648,95.156-81.195,107.589
		h-5.498c0,0,1.919-3.785-3.842-10.727c-5.759-6.942-4.799-8.519-2.56-13.251c0,0-12.151,11.669-0.797,25.239
		c0,0,0.636,2.207-1.122,4.259c-1.55,1.81-0.233,13.669,11.618,10.278c-11.661,13.093-46.387,43.175-62.461,56.927h-3.701
		c0,0,1.919-3.784-3.84-10.726c-5.759-6.942-4.801-8.519-2.561-13.252c0,0-12.154,11.669-0.8,25.239c0,0,0.638,2.207-1.119,4.259
		c-1.343,1.564-0.534,10.642,7.369,10.878l2.067,5.215c-20.988,19.184-77.391,51.889-99.114,64.21
		c0.276-0.754,1.21-4.418-3.898-10.578c-5.759-6.94-4.801-8.519-2.562-13.251c0,0-12.154,11.668-0.799,25.237
		c0,0,0.364,1.291-0.243,2.811c-0.773,0.432-1.195,0.666-1.195,0.666l0.363,0.721c-0.017,0.021-0.026,0.041-0.045,0.062
		c-1.225,1.432-0.658,9.125,5.469,10.631l0.45,0.891l28.314,8.992v35.179v126.203h23.993V506.926h5.599
		c15.517-28.394,39.829-3.945,39.829-3.945c27.993-24.923,38.551,6.154,38.551,6.154c2.529-0.684,4.91-1.453,7.199-2.275v126.27
		h23.992V492.816c18.078-16.304,22.291-38.569,28.153-52.46c8.319-19.72,15.515,2.207,15.515,2.207
		c8.639,11.041,13.76-4.418,13.76-4.418c8.382-28.937,30.659-0.074,30.739-0.182c0.075,0.107,0.131-0.178,0.131-0.178
		c2.496-3.358,22.224-28.577,30.608,0.359c0,0,5.117,15.459,13.755,4.418c0,0,7.196-21.927,15.515-2.207
		c5.862,13.891,10.079,36.156,28.155,52.46v140.312h23.995v-126.27c2.288,0.822,4.669,1.592,7.196,2.275
		c0,0,10.558-31.077,38.553-6.154c0,0,24.312-24.448,39.826,3.945h5.6v126.203h23.996V506.926v-35.179l28.313-8.992l0.448-0.891
		c6.129-1.504,6.696-9.199,5.47-10.631C661.544,451.212,661.535,451.192,661.519,451.171z"/>
	<path fill="#FFFFFF" d="M469.753,621.564c-1.579-6.525-11.089-7.973-11.089-7.973l-4.103-0.646
		c2.975-7.875,4.078-19.889,4.101-20.174h0.018v-41.381c0,0,2.004-9.41-16.949-11.539c-18.957-2.127-27.341-2.947-28.252-6.711
		s-0.183-9.166-0.183-9.166l4.191-7.199l-0.362,13.91c0,0,0.728,1.801,2.915,1.311l0.729-14.076c0,0,4.192-4.746,4.922-9.656
		c0.729-4.91,1.456-15.221,1.456-15.221s-3.462-0.164-4.555,0.98c0,0,2.914-13.093-7.109-17.183
		c-3.41-1.393-5.195-2.084-6.068-2.391l-1.952-9.721l-2.004-0.82v-5.729l-1.642-0.816l-2.913-10.805l-2.918,10.805l-1.642,0.816
		v5.729l-2.004,0.82l-1.952,9.721c-0.873,0.307-2.656,0.998-6.067,2.391c-10.025,4.09-7.108,17.183-7.108,17.183
		c-1.095-1.145-4.558-0.98-4.558-0.98s0.73,10.311,1.459,15.221s4.922,9.656,4.922,9.656l0.73,14.076
		c2.185,0.49,2.915-1.311,2.915-1.311l-0.364-13.91l4.191,7.199c0,0,0.729,5.402-0.184,9.166c-0.909,3.764-9.295,4.584-28.251,6.711
		c-18.954,2.129-16.949,11.539-16.949,11.539v51.393l-4.558,4.826c-14.216,5.732-6.561,25.535-6.561,25.535h68.897v-0.016h67.633
		C468.537,633.129,470.861,626.146,469.753,621.564z M361.482,619.504c0,0,7.201-36.824,6.546-47.463
		C368.028,572.041,386.197,599.209,361.482,619.504z M439.229,601.502l-6.549,5.402h-2.618c-14.73-24.225,6.873-45.012,6.873-45.012
		C439.391,568.113,439.229,601.502,439.229,601.502z"/>
</g>
</svg>
