<?xml version="1.0" encoding="utf-8"?>
<!-- Generator: Adobe Illustrator 15.0.0, SVG Export Plug-In . SVG Version: 6.00 Build 0)  -->
<!DOCTYPE svg PUBLIC "-//W3C//DTD SVG 1.1//EN" "http://www.w3.org/Graphics/SVG/1.1/DTD/svg11.dtd">
<svg version="1.1" xmlns="http://www.w3.org/2000/svg" xmlns:xlink="http://www.w3.org/1999/xlink" x="0px" y="0px" width="800px"
	 height="800px" viewBox="0 0 800 800" enable-background="new 0 0 800 800" xml:space="preserve">
<g id="Layer_1" display="none">
	<circle display="inline" fill="#FF0000" cx="400" cy="400" r="350"/>
	<g display="inline">
		<path fill="#FFFFFF" d="M562.99,584.115V534.85l-26.495-30.22v-44.711h-38.917v-31.34c1.526-1.57,2.483-3.587,2.483-5.813
			c0-4.972-10.245-17.123-10.245-17.123s-10.246,12.151-10.246,17.123c0,2.179,0.914,4.147,2.38,5.703v25.24
			c0,0-14.902-27.429-35.241-35.241c0,0,3.674-47.556-15.576-47.556c-19.249,0-18.627-2.692-18.627-2.692
			s-1.141-15.008,1.448-12.419c2.587,2.588,6.211,10.143,6.211-9.107c0,0,8.279-9.314,0-15.522c0,0,2.276-20.286-14.285-20.286
			c0,0,0.829-7.45-6-31.463c-6.83,24.013-6.003,31.463-6.003,31.463c-16.559,0-14.283,20.286-14.283,20.286
			c-8.28,6.208,0,15.522,0,15.522c0,19.25,3.624,11.696,6.208,9.107c2.587-2.588,1.451,12.419,1.451,12.419
			s0.622,2.692-18.627,2.692c-19.252,0-15.579,47.556-15.579,47.556c-20.338,7.812-35.241,35.238-35.241,35.238v-25.237
			c1.465-1.556,2.382-3.524,2.382-5.703c0-4.972-10.247-17.123-10.247-17.123s-10.246,12.151-10.246,17.123
			c0,2.227,0.954,4.243,2.484,5.813v31.34h-38.916v44.711l-26.495,30.22v49.266l-36.431,47.194v14.902h199.542H599.42V631.31
			L562.99,584.115z"/>
		<path fill="#FFFFFF" d="M399.879,299.913"/>
		<g>
			<g>
				<path fill="#FFFFFF" d="M399.876,195.541c-54.535,0-98.735,10.224-98.735,22.833c0,12.611,44.2,22.835,98.735,22.835
					c54.53,0,98.744-10.224,98.744-22.835C498.62,205.765,454.406,195.541,399.876,195.541z M399.879,225.009
					c-45.394,0-82.195-5.737-82.195-12.815c0-7.077,36.801-12.816,82.195-12.816c45.391,0,82.192,5.739,82.192,12.816
					C482.071,219.271,445.271,225.009,399.879,225.009z"/>
				<g>
					<path fill="#FFFFFF" d="M399.879,177.792v-0.273c-65.673,0-98.739,19.291-98.739,19.291v23.88
						c0-5.969,14.019-8.496,14.019-8.496c25.505-12.17,84.72-13.089,84.72-13.089v0.273c0,0,59.214,0.919,84.714,13.089
						c0,0,14.026,2.525,14.026,8.495v-23.881C498.62,197.082,465.552,177.792,399.879,177.792z"/>
					<polygon fill="#FFFFFF" points="399.876,179.592 384.836,179.592 392.355,173.848 399.876,168.104 407.4,173.848 
						414.922,179.592 					"/>
				</g>
			</g>
			<path fill="#FFFFFF" d="M397.394,276.605V161.863c0-1.372,2.486-7.735,2.486-7.735s2.482,6.363,2.482,7.735v114.742
				C402.362,277.976,397.394,277.976,397.394,276.605z"/>
		</g>
	</g>
	<g display="inline">
		<g>
			<g>
				<path fill="#FFFFFF" d="M218.313,381.813c14.184,0,25.723-11.539,25.723-25.721h-7.195c0,10.215-8.312,18.525-18.527,18.525
					c-10.215,0-18.525-8.311-18.525-18.525h-7.195C192.592,370.274,204.13,381.813,218.313,381.813z"/>
				<path fill="#FFFFFF" d="M262.789,381.813c14.183,0,25.722-11.539,25.722-25.721h-7.195c0,10.215-8.311,18.525-18.526,18.525
					c-10.215,0-18.526-8.311-18.526-18.525h-7.194C237.068,370.274,248.606,381.813,262.789,381.813z"/>
				<path fill="#FFFFFF" d="M306.972,374.618L306.972,374.618c-10.215,0-18.525-8.311-18.525-18.525h-7.195
					c0,14.182,11.538,25.721,25.721,25.721l0,0V374.618z"/>
				<path fill="#FFFFFF" d="M173.865,374.618L173.865,374.618c10.216,0,18.526-8.311,18.526-18.525h7.195
					c0,14.182-11.538,25.721-25.722,25.721l0,0V374.618z"/>
			</g>
			<g>
				<path fill="#FFFFFF" d="M537.476,381.813c14.184,0,25.723-11.539,25.723-25.721h-7.195c0,10.215-8.311,18.525-18.527,18.525
					c-10.215,0-18.525-8.311-18.525-18.525h-7.195C511.755,370.274,523.294,381.813,537.476,381.813z"/>
				<path fill="#FFFFFF" d="M581.952,381.813c14.182,0,25.721-11.539,25.721-25.721h-7.195c0,10.215-8.311,18.525-18.525,18.525
					s-18.527-8.311-18.527-18.525h-7.193C556.231,370.274,567.769,381.813,581.952,381.813z"/>
				<path fill="#FFFFFF" d="M626.136,374.618L626.136,374.618c-10.215,0-18.525-8.311-18.525-18.525h-7.195
					c0,14.182,11.537,25.721,25.721,25.721l0,0V374.618z"/>
				<path fill="#FFFFFF" d="M493.028,374.618L493.028,374.618c10.215,0,18.525-8.311,18.525-18.525h7.195
					c0,14.182-11.537,25.721-25.721,25.721l0,0V374.618z"/>
			</g>
		</g>
		<g>
			<g>
				<path fill="#FFFFFF" d="M158.189,443.907c14.184,0,25.723-11.539,25.723-25.721h-7.195c0,10.215-8.312,18.525-18.527,18.525
					c-10.215,0-18.525-8.311-18.525-18.525h-7.195C132.469,432.368,144.007,443.907,158.189,443.907z"/>
				<path fill="#FFFFFF" d="M202.665,443.907c14.183,0,25.722-11.539,25.722-25.721h-7.195c0,10.215-8.311,18.525-18.526,18.525
					c-10.215,0-18.526-8.311-18.526-18.525h-7.194C176.944,432.368,188.482,443.907,202.665,443.907z"/>
				<path fill="#FFFFFF" d="M246.849,436.712L246.849,436.712c-10.215,0-18.525-8.311-18.525-18.525h-7.195
					c0,14.182,11.538,25.721,25.721,25.721l0,0V436.712z"/>
				<path fill="#FFFFFF" d="M113.741,436.712L113.741,436.712c10.216,0,18.526-8.311,18.526-18.525h7.195
					c0,14.182-11.538,25.721-25.722,25.721l0,0V436.712z"/>
			</g>
			<g>
				<path fill="#FFFFFF" d="M597.599,443.907c14.184,0,25.723-11.539,25.723-25.721h-7.195c0,10.215-8.311,18.525-18.527,18.525
					c-10.215,0-18.525-8.311-18.525-18.525h-7.195C571.878,432.368,583.417,443.907,597.599,443.907z"/>
				<path fill="#FFFFFF" d="M642.075,443.907c14.182,0,25.721-11.539,25.721-25.721h-7.195c0,10.215-8.311,18.525-18.525,18.525
					s-18.527-8.311-18.527-18.525h-7.193C616.354,432.368,627.892,443.907,642.075,443.907z"/>
				<path fill="#FFFFFF" d="M686.259,436.712L686.259,436.712c-10.215,0-18.525-8.311-18.525-18.525h-7.195
					c0,14.182,11.537,25.721,25.721,25.721l0,0V436.712z"/>
				<path fill="#FFFFFF" d="M553.151,436.712L553.151,436.712c10.215,0,18.525-8.311,18.525-18.525h7.195
					c0,14.182-11.537,25.721-25.721,25.721l0,0V436.712z"/>
			</g>
		</g>
	</g>
</g>
<g id="Layer_2" display="none">
	<g display="inline">
		<circle fill="#FFFFFF" cx="400" cy="400" r="350"/>
		<path fill="#009696" d="M400,760c-48.595,0-95.742-9.52-140.131-28.295c-42.87-18.132-81.369-44.088-114.427-77.146
			s-59.015-71.558-77.147-114.428C49.52,495.742,40,448.595,40,400c0-48.595,9.52-95.742,28.294-140.131
			c18.132-42.87,44.088-81.369,77.147-114.427s71.558-59.015,114.427-77.147C304.258,49.52,351.405,40,400,40
			c48.596,0,95.742,9.52,140.131,28.294c42.87,18.132,81.369,44.088,114.428,77.147s59.015,71.558,77.146,114.427
			C750.48,304.258,760,351.405,760,400c0,48.595-9.52,95.742-28.295,140.131c-18.132,42.87-44.088,81.369-77.146,114.428
			s-71.558,59.015-114.428,77.146C495.742,750.48,448.596,760,400,760z M400,60C212.523,60,60,212.523,60,400s152.523,340,340,340
			s340-152.523,340-340S587.477,60,400,60z"/>
	</g>
	<g display="inline">
		<path fill="#009696" d="M562.99,584.115V534.85l-26.495-30.22v-44.711h-38.917v-31.34c1.526-1.57,2.483-3.587,2.483-5.813
			c0-4.972-10.245-17.123-10.245-17.123s-10.246,12.151-10.246,17.123c0,2.179,0.914,4.147,2.38,5.703v25.24
			c0,0-14.902-27.429-35.241-35.241c0,0,3.674-47.556-15.576-47.556c-19.249,0-18.627-2.692-18.627-2.692
			s-1.141-15.008,1.448-12.419c2.587,2.588,6.211,10.143,6.211-9.107c0,0,8.279-9.314,0-15.522c0,0,2.276-20.286-14.285-20.286
			c0,0,0.829-7.45-6-31.463c-6.83,24.013-6.003,31.463-6.003,31.463c-16.559,0-14.283,20.286-14.283,20.286
			c-8.28,6.208,0,15.522,0,15.522c0,19.25,3.624,11.696,6.208,9.107c2.587-2.588,1.451,12.419,1.451,12.419
			s0.622,2.692-18.627,2.692c-19.252,0-15.579,47.556-15.579,47.556c-20.338,7.812-35.241,35.238-35.241,35.238v-25.237
			c1.465-1.556,2.382-3.524,2.382-5.703c0-4.972-10.247-17.123-10.247-17.123s-10.246,12.151-10.246,17.123
			c0,2.227,0.954,4.243,2.484,5.813v31.34h-38.916v44.711l-26.495,30.22v49.266l-36.431,47.194v14.902h199.542H599.42V631.31
			L562.99,584.115z"/>
		<path fill="#009696" d="M399.879,299.913"/>
		<g>
			<g>
				<path fill="#009696" d="M399.876,195.541c-54.535,0-98.735,10.224-98.735,22.833c0,12.611,44.2,22.835,98.735,22.835
					c54.53,0,98.744-10.224,98.744-22.835C498.62,205.765,454.406,195.541,399.876,195.541z M399.879,225.009
					c-45.394,0-82.195-5.737-82.195-12.815c0-7.077,36.801-12.816,82.195-12.816c45.391,0,82.192,5.739,82.192,12.816
					C482.071,219.271,445.271,225.009,399.879,225.009z"/>
				<g>
					<path fill="#009696" d="M399.879,177.792v-0.273c-65.673,0-98.739,19.291-98.739,19.291v23.88
						c0-5.969,14.019-8.496,14.019-8.496c25.505-12.17,84.72-13.089,84.72-13.089v0.273c0,0,59.214,0.919,84.714,13.089
						c0,0,14.026,2.525,14.026,8.495v-23.881C498.62,197.082,465.552,177.792,399.879,177.792z"/>
					<polygon fill="#009696" points="399.876,179.592 384.836,179.592 392.355,173.848 399.876,168.104 407.4,173.848 
						414.922,179.592 					"/>
				</g>
			</g>
			<path fill="#009696" d="M397.394,276.605V161.863c0-1.372,2.486-7.735,2.486-7.735s2.482,6.363,2.482,7.735v114.742
				C402.362,277.976,397.394,277.976,397.394,276.605z"/>
		</g>
	</g>
	<g display="inline">
		<g>
			<g>
				<path fill="#009696" d="M218.313,381.813c14.184,0,25.723-11.539,25.723-25.721h-7.195c0,10.215-8.312,18.525-18.527,18.525
					c-10.215,0-18.525-8.311-18.525-18.525h-7.195C192.592,370.274,204.13,381.813,218.313,381.813z"/>
				<path fill="#009696" d="M262.789,381.813c14.183,0,25.722-11.539,25.722-25.721h-7.195c0,10.215-8.311,18.525-18.526,18.525
					c-10.215,0-18.526-8.311-18.526-18.525h-7.194C237.068,370.274,248.606,381.813,262.789,381.813z"/>
				<path fill="#009696" d="M306.972,374.618L306.972,374.618c-10.215,0-18.525-8.311-18.525-18.525h-7.195
					c0,14.182,11.538,25.721,25.721,25.721l0,0V374.618z"/>
				<path fill="#009696" d="M173.865,374.618L173.865,374.618c10.216,0,18.526-8.311,18.526-18.525h7.195
					c0,14.182-11.538,25.721-25.722,25.721l0,0V374.618z"/>
			</g>
			<g>
				<path fill="#009696" d="M537.476,381.813c14.184,0,25.723-11.539,25.723-25.721h-7.195c0,10.215-8.311,18.525-18.527,18.525
					c-10.215,0-18.525-8.311-18.525-18.525h-7.195C511.755,370.274,523.294,381.813,537.476,381.813z"/>
				<path fill="#009696" d="M581.952,381.813c14.182,0,25.721-11.539,25.721-25.721h-7.195c0,10.215-8.311,18.525-18.525,18.525
					s-18.527-8.311-18.527-18.525h-7.193C556.231,370.274,567.769,381.813,581.952,381.813z"/>
				<path fill="#009696" d="M626.136,374.618L626.136,374.618c-10.215,0-18.525-8.311-18.525-18.525h-7.195
					c0,14.182,11.537,25.721,25.721,25.721l0,0V374.618z"/>
				<path fill="#009696" d="M493.028,374.618L493.028,374.618c10.215,0,18.525-8.311,18.525-18.525h7.195
					c0,14.182-11.537,25.721-25.721,25.721l0,0V374.618z"/>
			</g>
		</g>
		<g>
			<g>
				<path fill="#009696" d="M158.189,443.907c14.184,0,25.723-11.539,25.723-25.721h-7.195c0,10.215-8.312,18.525-18.527,18.525
					c-10.215,0-18.525-8.311-18.525-18.525h-7.195C132.469,432.368,144.007,443.907,158.189,443.907z"/>
				<path fill="#009696" d="M202.665,443.907c14.183,0,25.722-11.539,25.722-25.721h-7.195c0,10.215-8.311,18.525-18.526,18.525
					c-10.215,0-18.526-8.311-18.526-18.525h-7.194C176.944,432.368,188.482,443.907,202.665,443.907z"/>
				<path fill="#009696" d="M246.849,436.712L246.849,436.712c-10.215,0-18.525-8.311-18.525-18.525h-7.195
					c0,14.182,11.538,25.721,25.721,25.721l0,0V436.712z"/>
				<path fill="#009696" d="M113.741,436.712L113.741,436.712c10.216,0,18.526-8.311,18.526-18.525h7.195
					c0,14.182-11.538,25.721-25.722,25.721l0,0V436.712z"/>
			</g>
			<g>
				<path fill="#009696" d="M597.599,443.907c14.184,0,25.723-11.539,25.723-25.721h-7.195c0,10.215-8.311,18.525-18.527,18.525
					c-10.215,0-18.525-8.311-18.525-18.525h-7.195C571.878,432.368,583.417,443.907,597.599,443.907z"/>
				<path fill="#009696" d="M642.075,443.907c14.182,0,25.721-11.539,25.721-25.721h-7.195c0,10.215-8.311,18.525-18.525,18.525
					s-18.527-8.311-18.527-18.525h-7.193C616.354,432.368,627.892,443.907,642.075,443.907z"/>
				<path fill="#009696" d="M686.259,436.712L686.259,436.712c-10.215,0-18.525-8.311-18.525-18.525h-7.195
					c0,14.182,11.537,25.721,25.721,25.721l0,0V436.712z"/>
				<path fill="#009696" d="M553.151,436.712L553.151,436.712c10.215,0,18.525-8.311,18.525-18.525h7.195
					c0,14.182-11.537,25.721-25.721,25.721l0,0V436.712z"/>
			</g>
		</g>
	</g>
</g>
<g id="Layer_3">
	<g>
		<circle fill="#009696" cx="400" cy="400" r="350"/>
		<g>
			<path fill="#FFFFFF" d="M562.99,584.115V534.85l-26.495-30.22v-44.711h-38.917v-31.34c1.526-1.57,2.483-3.587,2.483-5.813
				c0-4.972-10.245-17.123-10.245-17.123s-10.246,12.151-10.246,17.123c0,2.179,0.914,4.147,2.38,5.703v25.24
				c0,0-14.902-27.429-35.241-35.241c0,0,3.674-47.556-15.576-47.556c-19.249,0-18.627-2.692-18.627-2.692
				s-1.141-15.008,1.448-12.419c2.587,2.588,6.211,10.143,6.211-9.107c0,0,8.279-9.314,0-15.522c0,0,2.276-20.286-14.285-20.286
				c0,0,0.829-7.45-6-31.463c-6.83,24.013-6.003,31.463-6.003,31.463c-16.559,0-14.283,20.286-14.283,20.286
				c-8.28,6.208,0,15.522,0,15.522c0,19.25,3.624,11.696,6.208,9.107c2.587-2.588,1.451,12.419,1.451,12.419
				s0.622,2.692-18.627,2.692c-19.252,0-15.579,47.556-15.579,47.556c-20.338,7.812-35.241,35.238-35.241,35.238v-25.237
				c1.465-1.556,2.382-3.524,2.382-5.703c0-4.972-10.247-17.123-10.247-17.123s-10.246,12.151-10.246,17.123
				c0,2.227,0.954,4.243,2.484,5.813v31.34h-38.916v44.711l-26.495,30.22v49.266l-36.431,47.194v14.902h199.542H599.42V631.31
				L562.99,584.115z"/>
			<path fill="#FFFFFF" d="M399.879,299.913"/>
			<g>
				<g>
					<path fill="#FFFFFF" d="M399.876,195.541c-54.535,0-98.735,10.224-98.735,22.833c0,12.611,44.2,22.835,98.735,22.835
						c54.53,0,98.744-10.224,98.744-22.835C498.62,205.765,454.406,195.541,399.876,195.541z M399.879,225.009
						c-45.394,0-82.195-5.737-82.195-12.815c0-7.077,36.801-12.816,82.195-12.816c45.391,0,82.192,5.739,82.192,12.816
						C482.071,219.271,445.271,225.009,399.879,225.009z"/>
					<g>
						<path fill="#FFFFFF" d="M399.879,177.792v-0.273c-65.673,0-98.739,19.291-98.739,19.291v23.88
							c0-5.969,14.019-8.496,14.019-8.496c25.505-12.17,84.72-13.089,84.72-13.089v0.273c0,0,59.214,0.919,84.714,13.089
							c0,0,14.026,2.525,14.026,8.495v-23.881C498.62,197.082,465.552,177.792,399.879,177.792z"/>
						<polygon fill="#FFFFFF" points="399.876,179.592 384.836,179.592 392.355,173.848 399.876,168.104 407.4,173.848 
							414.922,179.592 						"/>
					</g>
				</g>
				<path fill="#FFFFFF" d="M397.394,276.605V161.863c0-1.372,2.486-7.735,2.486-7.735s2.482,6.363,2.482,7.735v114.742
					C402.362,277.976,397.394,277.976,397.394,276.605z"/>
			</g>
		</g>
		<g>
			<g>
				<g>
					<path fill="#FFFFFF" d="M218.313,381.813c14.184,0,25.723-11.539,25.723-25.721h-7.195c0,10.215-8.312,18.525-18.527,18.525
						c-10.215,0-18.525-8.311-18.525-18.525h-7.195C192.592,370.274,204.13,381.813,218.313,381.813z"/>
					<path fill="#FFFFFF" d="M262.789,381.813c14.183,0,25.722-11.539,25.722-25.721h-7.195c0,10.215-8.311,18.525-18.526,18.525
						c-10.215,0-18.526-8.311-18.526-18.525h-7.194C237.068,370.274,248.606,381.813,262.789,381.813z"/>
					<path fill="#FFFFFF" d="M306.972,374.618L306.972,374.618c-10.215,0-18.525-8.311-18.525-18.525h-7.195
						c0,14.182,11.538,25.721,25.721,25.721l0,0V374.618z"/>
					<path fill="#FFFFFF" d="M173.865,374.618L173.865,374.618c10.216,0,18.526-8.311,18.526-18.525h7.195
						c0,14.182-11.538,25.721-25.722,25.721l0,0V374.618z"/>
				</g>
				<g>
					<path fill="#FFFFFF" d="M537.476,381.813c14.184,0,25.723-11.539,25.723-25.721h-7.195c0,10.215-8.311,18.525-18.527,18.525
						c-10.215,0-18.525-8.311-18.525-18.525h-7.195C511.755,370.274,523.294,381.813,537.476,381.813z"/>
					<path fill="#FFFFFF" d="M581.952,381.813c14.182,0,25.721-11.539,25.721-25.721h-7.195c0,10.215-8.311,18.525-18.525,18.525
						s-18.527-8.311-18.527-18.525h-7.193C556.231,370.274,567.769,381.813,581.952,381.813z"/>
					<path fill="#FFFFFF" d="M626.136,374.618L626.136,374.618c-10.215,0-18.525-8.311-18.525-18.525h-7.195
						c0,14.182,11.537,25.721,25.721,25.721l0,0V374.618z"/>
					<path fill="#FFFFFF" d="M493.028,374.618L493.028,374.618c10.215,0,18.525-8.311,18.525-18.525h7.195
						c0,14.182-11.537,25.721-25.721,25.721l0,0V374.618z"/>
				</g>
			</g>
			<g>
				<g>
					<path fill="#FFFFFF" d="M158.189,443.907c14.184,0,25.723-11.539,25.723-25.721h-7.195c0,10.215-8.312,18.525-18.527,18.525
						c-10.215,0-18.525-8.311-18.525-18.525h-7.195C132.469,432.368,144.007,443.907,158.189,443.907z"/>
					<path fill="#FFFFFF" d="M202.665,443.907c14.183,0,25.722-11.539,25.722-25.721h-7.195c0,10.215-8.311,18.525-18.526,18.525
						c-10.215,0-18.526-8.311-18.526-18.525h-7.194C176.944,432.368,188.482,443.907,202.665,443.907z"/>
					<path fill="#FFFFFF" d="M246.849,436.712L246.849,436.712c-10.215,0-18.525-8.311-18.525-18.525h-7.195
						c0,14.182,11.538,25.721,25.721,25.721l0,0V436.712z"/>
					<path fill="#FFFFFF" d="M113.741,436.712L113.741,436.712c10.216,0,18.526-8.311,18.526-18.525h7.195
						c0,14.182-11.538,25.721-25.722,25.721l0,0V436.712z"/>
				</g>
				<g>
					<path fill="#FFFFFF" d="M597.599,443.907c14.184,0,25.723-11.539,25.723-25.721h-7.195c0,10.215-8.311,18.525-18.527,18.525
						c-10.215,0-18.525-8.311-18.525-18.525h-7.195C571.878,432.368,583.417,443.907,597.599,443.907z"/>
					<path fill="#FFFFFF" d="M642.075,443.907c14.182,0,25.721-11.539,25.721-25.721h-7.195c0,10.215-8.311,18.525-18.525,18.525
						s-18.527-8.311-18.527-18.525h-7.193C616.354,432.368,627.892,443.907,642.075,443.907z"/>
					<path fill="#FFFFFF" d="M686.259,436.712L686.259,436.712c-10.215,0-18.525-8.311-18.525-18.525h-7.195
						c0,14.182,11.537,25.721,25.721,25.721l0,0V436.712z"/>
					<path fill="#FFFFFF" d="M553.151,436.712L553.151,436.712c10.215,0,18.525-8.311,18.525-18.525h7.195
						c0,14.182-11.537,25.721-25.721,25.721l0,0V436.712z"/>
				</g>
			</g>
		</g>
	</g>
</g>
</svg>
