<?xml version="1.0" encoding="utf-8"?>
<!-- Generator: Adobe Illustrator 15.0.0, SVG Export Plug-In . SVG Version: 6.00 Build 0)  -->
<!DOCTYPE svg PUBLIC "-//W3C//DTD SVG 1.1//EN" "http://www.w3.org/Graphics/SVG/1.1/DTD/svg11.dtd">
<svg version="1.1" id="Layer_1" xmlns="http://www.w3.org/2000/svg" xmlns:xlink="http://www.w3.org/1999/xlink" x="0px" y="0px"
	 width="800px" height="800px" viewBox="0 0 800 800" enable-background="new 0 0 800 800" xml:space="preserve">
<g id="Layer_3" display="none">
	<path display="inline" fill="#FF0000" d="M137.604,398.354"/>
	<g display="inline">
		<g>
			<defs>
				<circle id="SVGID_1_" cx="400" cy="400" r="350"/>
			</defs>
			<clipPath id="SVGID_2_">
				<use xlink:href="#SVGID_1_"  overflow="visible"/>
			</clipPath>
			<path clip-path="url(#SVGID_2_)" fill="none" d="M137.604,398.354"/>
		</g>
	</g>
	<circle display="inline" fill="none" cx="400" cy="400" r="350"/>
	<g display="inline">
		<g>
			<circle id="SVGID_3_" fill="#ED1C24" cx="400" cy="400" r="350"/>
		</g>
		<g>
			<defs>
				<circle id="SVGID_4_" cx="400" cy="400" r="350"/>
			</defs>
			<clipPath id="SVGID_5_">
				<use xlink:href="#SVGID_4_"  overflow="visible"/>
			</clipPath>
			<g clip-path="url(#SVGID_5_)">
				<g>
					<g>
						<path fill="#FFFFFF" d="M278.437,673.796c14.184,0,25.723-11.539,25.723-25.721h-7.195c0,10.215-8.312,18.524-18.527,18.524
							s-18.525-8.311-18.525-18.524h-7.195C252.716,662.257,264.254,673.796,278.437,673.796z"/>
						<path fill="#FFFFFF" d="M322.912,673.796c14.183,0,25.722-11.539,25.722-25.721h-7.194c0,10.215-8.312,18.524-18.526,18.524
							s-18.526-8.311-18.526-18.524h-7.194C297.191,662.257,308.729,673.796,322.912,673.796z"/>
						<path fill="#FFFFFF" d="M367.096,666.601L367.096,666.601c-10.215,0-18.524-8.311-18.524-18.524h-7.195
							c0,14.182,11.538,25.721,25.721,25.721l0,0L367.096,666.601L367.096,666.601z"/>
						<path fill="#FFFFFF" d="M233.988,666.601L233.988,666.601c10.216,0,18.526-8.311,18.526-18.524h7.195
							c0,14.182-11.538,25.721-25.722,25.721l0,0L233.988,666.601L233.988,666.601z"/>
					</g>
					<g>
						<path fill="#FFFFFF" d="M477.354,673.796c14.184,0,25.723-11.539,25.723-25.721h-7.195c0,10.215-8.312,18.524-18.527,18.524
							c-10.215,0-18.524-8.311-18.524-18.524h-7.195C451.632,662.257,463.17,673.796,477.354,673.796z"/>
						<path fill="#FFFFFF" d="M521.828,673.796c14.183,0,25.722-11.539,25.722-25.721h-7.194c0,10.215-8.312,18.524-18.526,18.524
							s-18.526-8.311-18.526-18.524h-7.193C496.107,662.257,507.646,673.796,521.828,673.796z"/>
						<path fill="#FFFFFF" d="M566.012,666.601L566.012,666.601c-10.215,0-18.524-8.311-18.524-18.524h-7.195
							c0,14.182,11.538,25.721,25.721,25.721l0,0L566.012,666.601L566.012,666.601z"/>
						<path fill="#FFFFFF" d="M432.904,666.601L432.904,666.601c10.216,0,18.525-8.311,18.525-18.524h7.195
							c0,14.182-11.538,25.721-25.722,25.721l0,0L432.904,666.601L432.904,666.601z"/>
					</g>
				</g>
				<g>
					<path fill="#FFFFFF" d="M377.895,716.771c14.185,0,25.724-11.539,25.724-25.722h-7.195c0,10.215-8.312,18.525-18.527,18.525
						c-10.215,0-18.524-8.312-18.524-18.525h-7.195C352.174,705.231,363.712,716.771,377.895,716.771z"/>
					<path fill="#FFFFFF" d="M422.37,716.771c14.183,0,25.722-11.539,25.722-25.722h-7.195c0,10.215-8.311,18.525-18.525,18.525
						s-18.526-8.312-18.526-18.525h-7.193C396.649,705.231,408.188,716.771,422.37,716.771z"/>
					<path fill="#FFFFFF" d="M466.554,709.575L466.554,709.575c-10.215,0-18.524-8.312-18.524-18.525h-7.195
						c0,14.183,11.538,25.722,25.721,25.722l0,0L466.554,709.575L466.554,709.575z"/>
					<path fill="#FFFFFF" d="M333.446,709.575L333.446,709.575c10.216,0,18.525-8.312,18.525-18.525h7.195
						c0,14.183-11.538,25.722-25.722,25.722l0,0L333.446,709.575L333.446,709.575z"/>
				</g>
				<g>
					<path fill="#FFFFFF" d="M500.765,610.462c0,0,20.312,2.438,30.062-4.876c0,0-22.748,1.622-31.69-21.938
						c-8.937-23.571-12.592-40.938-19.602-40.938v-22.246h-6.095v-7.921h-5.182v-6.704h-4.266v-5.181h-7.008v-14.322l4.419-4.419
						v-11.121l-4.8-4.799v-8.609l4.76-4.76v-6.817l-4.321-4.325v-7.56l4.541-4.545v-12.216l-5.193-5.195h-8.854l-13.408-44.17
						l4.266-4.266v-8.838l-4.876-4.874v-4.267l1.829-1.829v-7.008l-3.962-3.961v-3.048l2.285-2.286v-5.332l-4.418-2.438
						c0,0-4.875-34.738-17.062-34.738v-7.313h-5.791v-48.45h8.838v-11.274h-3.047v-5.181h-2.438v-4.875h-2.134v-5.381h-2.438v-9.855
						h-2.539L400,167.6l-2.643,24.986h-2.538v9.855h-2.438v5.381h-2.135v4.875h-2.438v5.181h-3.046v11.274h8.836v48.45h-5.79v7.313
						c-12.188,0-17.062,34.738-17.062,34.738l-4.419,2.438v5.332l2.285,2.286v3.048l-3.962,3.961v7.008l1.827,1.829v4.267
						l-4.875,4.874v8.838l4.268,4.266l-13.408,44.169h-8.851l-5.195,5.195v12.216l4.543,4.545v7.56l-4.323,4.325v6.817l4.762,4.76
						v8.609l-4.8,4.799v11.121l4.418,4.419v14.322h-7.009v5.181h-4.267v6.704h-5.181v7.921h-6.094v22.246
						c-7.009,0-10.665,17.367-19.604,40.938c-8.939,23.562-31.691,21.938-31.691,21.938c9.751,7.313,30.065,4.876,30.065,4.876
						c-10.565,16.249-25.189,21.938-25.189,21.938H400h125.951C525.951,632.4,511.329,626.711,500.765,610.462z"/>
					<g>
						<path fill="#FFFFFF" d="M1148.021,437.019c0,0-81.266-4.466-63.115,42.626c3.195,5.444,5.581,11.459,6.947,17.935
							c6.885,32.728-14.67,64.713-48.143,71.449c-31.41,6.312-62.15-11.85-71.508-41.157h-0.034
							c-8.752-51.585-53.308-90.852-106.983-90.852c-53.686,0-98.239,39.267-106.995,90.852h-0.434
							c-9.361,29.304-40.1,47.471-71.505,41.157c-33.472-6.736-55.025-38.723-48.15-71.449c1.366-6.477,3.758-12.489,6.947-17.935
							c0,0,8.193-20.902,15.056-37.992c0.074-0.176,12.808-29.614,14.456-37.475c0,0,20.604-59.455,14.521-78.887
							c0,0,15.307-14.126-1.964-36.498c0,0,6.146-2.225,5.886-7.457c0,0-5.23,6.67-13.736,0.652
							c-8.503-6.016-12.035-11.51-14.648-18.969c0,0-4.452,5.888-3.533,10.729c0,0-11.642-7.458-10.856-22.5
							c0,0-7.461,3.53-8.373,10.072c0,0-7.327-14.392-5.629-27.08c0,0-8.112,4.316-8.235,18.314c0,0-4.062-7.325-4.843-22.633
							c-0.786-15.306-6.87-25.118-8.048-30.808c-1.175-5.689-4.709-9.812-4.709-18.447c0,0-8.046,11.774-6.675,21.39
							c1.377,9.615,1.772,32.379,3.339,41.799c1.565,9.418,4.709,16.286,5.886,18.055c0,0-4.319,10.203-19.031,10.793
							c0,0-5.104,10.204,3.333,16.875c8.436,6.672,20.801,11.969,26.1,17.658c5.296,5.695,6.275,7.852,10.204,7.852
							c3.923,0,2.946,3.141-0.59,4.906c-3.528,1.765-7.78,0.589-10.661,2.355c-2.875,1.766-9.354,9.027-9.354,14.521
							s-3.334,9.812,8.441,9.812c11.774,0,21.588-1.178,20.211,10.398c-1.376,11.579-10.989,34.145-14.327,41.799
							c-2.137,4.906-7.979,17.624-12.008,28.353l0,0l-20.906,52.411c-2.737,9.614-4.209,19.766-4.209,30.264
							c0,60.435,48.607,109.426,108.57,109.426c53.684,0,98.248-39.265,106.996-90.851h0.432
							c9.361-29.303,40.104-47.47,71.509-41.157c22.858,4.598,40.144,20.973,46.635,41.31
							c8.807,51.511,53.334,90.698,106.964,90.698c59.963,0,108.571-48.991,108.571-109.423c0-10.501-1.472-20.651-4.21-30.267
							C1135.608,479.645,1126.211,446.312,1148.021,437.019z"/>
						<path fill="#FFFFFF" d="M-348.021,437.019c0,0,81.264-4.466,63.115,42.63c-3.195,5.44-5.582,11.451-6.946,17.931
							c-6.886,32.728,14.669,64.713,48.141,71.449c31.409,6.312,62.149-11.85,71.509-41.157h0.033
							c8.748-51.585,53.305-90.852,106.982-90.852c53.686,0,98.241,39.267,106.997,90.852h0.431
							c9.363,29.304,40.102,47.471,71.505,41.157c33.474-6.736,55.027-38.723,48.149-71.449c-1.363-6.479-3.756-12.489-6.943-17.931
							c0,0-8.195-20.906-15.059-37.994c-0.075-0.178-12.807-29.616-14.451-37.477c0,0-20.607-59.455-14.522-78.887
							c0,0-15.308-14.127,1.96-36.498c0,0-6.148-2.225-5.883-7.457c0,0,5.23,6.67,13.736,0.652
							c8.501-6.017,12.036-11.51,14.65-18.969c0,0,4.449,5.888,3.532,10.729c0,0,11.642-7.458,10.855-22.5
							c0,0,7.459,3.53,8.376,10.072c0,0,7.324-14.392,5.625-27.08c0,0,8.113,4.316,8.238,18.314c0,0,4.061-7.325,4.843-22.633
							c0.786-15.306,6.868-25.118,8.047-30.808c1.176-5.689,4.708-9.812,4.708-18.447c0,0,8.047,11.774,6.676,21.39
							c-1.375,9.615-1.771,32.379-3.34,41.799c-1.566,9.418-4.709,16.286-5.883,18.055c0,0,4.316,10.203,19.031,10.793
							c0,0,5.102,10.204-3.336,16.875c-8.434,6.672-20.8,11.969-26.099,17.658c-5.297,5.695-6.277,7.852-10.202,7.852
							c-3.925,0-2.948,3.141,0.587,4.906c3.53,1.765,7.78,0.588,10.66,2.355c2.879,1.766,9.358,9.027,9.358,14.521
							s3.333,9.812-8.441,9.812c-11.774,0-21.588-1.178-20.211,10.398c1.373,11.582,10.988,34.145,14.326,41.799
							c2.135,4.906,7.979,17.624,12.006,28.353l0,0l20.908,52.415c2.738,9.61,4.207,19.762,4.207,30.26
							c0,60.435-48.607,109.426-108.57,109.426c-53.684,0-98.246-39.265-106.994-90.851h-0.432
							c-9.363-29.303-40.104-47.475-71.509-41.157c-22.859,4.598-40.146,20.97-46.632,41.31
							c-8.811,51.511-53.338,90.698-106.967,90.698c-59.963,0-108.57-48.991-108.57-109.423c0-10.501,1.471-20.651,4.209-30.263
							C-335.609,479.647-326.211,446.311-348.021,437.019z"/>
					</g>
				</g>
			</g>
		</g>
	</g>
</g>
<g id="Layer_2" display="none">
	<g display="inline">
		<g>
			<circle fill="#FFFFFF" cx="400" cy="400" r="350"/>
			<path fill="#009696" d="M400,760c-48.595,0-95.742-9.52-140.131-28.295c-42.87-18.132-81.369-44.088-114.427-77.146
				c-33.058-33.058-59.015-71.558-77.147-114.428C49.52,495.742,40,448.596,40,400c0-48.595,9.52-95.742,28.294-140.131
				c18.132-42.87,44.088-81.369,77.147-114.427s71.558-59.015,114.427-77.147C304.258,49.52,351.405,40,400,40
				c48.596,0,95.742,9.52,140.131,28.294c42.87,18.132,81.369,44.088,114.428,77.147c33.06,33.059,59.016,71.558,77.146,114.427
				C750.48,304.258,760,351.405,760,400c0,48.596-9.52,95.742-28.295,140.131c-18.132,42.87-44.088,81.369-77.146,114.428
				c-33.058,33.06-71.558,59.016-114.428,77.146C495.742,750.48,448.596,760,400,760z M400,60C212.523,60,60,212.523,60,400
				c0,187.477,152.523,340,340,340c187.477,0,340-152.523,340-340C740,212.523,587.477,60,400,60z"/>
		</g>
		<g>
			<g>
				<defs>
					<circle id="SVGID_6_" cx="400" cy="400" r="350"/>
				</defs>
				<clipPath id="SVGID_7_">
					<use xlink:href="#SVGID_6_"  overflow="visible"/>
				</clipPath>
				<path clip-path="url(#SVGID_7_)" fill="#FFFFFF" d="M137.604,398.354"/>
			</g>
		</g>
		<g>
			<g>
				<path fill="#009696" d="M278.437,673.796c14.184,0,25.723-11.539,25.723-25.721h-7.195c0,10.215-8.312,18.524-18.527,18.524
					s-18.525-8.311-18.525-18.524h-7.195C252.716,662.257,264.254,673.796,278.437,673.796z"/>
				<path fill="#009696" d="M322.912,673.796c14.183,0,25.722-11.539,25.722-25.721h-7.194c0,10.215-8.312,18.524-18.526,18.524
					s-18.526-8.311-18.526-18.524h-7.194C297.191,662.257,308.729,673.796,322.912,673.796z"/>
				<path fill="#009696" d="M367.096,666.601L367.096,666.601c-10.215,0-18.524-8.311-18.524-18.524h-7.195
					c0,14.182,11.538,25.721,25.721,25.721l0,0L367.096,666.601L367.096,666.601z"/>
				<path fill="#009696" d="M233.988,666.601L233.988,666.601c10.216,0,18.526-8.311,18.526-18.524h7.195
					c0,14.182-11.538,25.721-25.722,25.721l0,0L233.988,666.601L233.988,666.601z"/>
			</g>
			<g>
				<path fill="#009696" d="M477.354,673.796c14.184,0,25.723-11.539,25.723-25.721h-7.195c0,10.215-8.312,18.524-18.527,18.524
					c-10.215,0-18.524-8.311-18.524-18.524h-7.195C451.632,662.257,463.17,673.796,477.354,673.796z"/>
				<path fill="#009696" d="M521.828,673.796c14.183,0,25.722-11.539,25.722-25.721h-7.194c0,10.215-8.312,18.524-18.526,18.524
					s-18.526-8.311-18.526-18.524h-7.193C496.107,662.257,507.646,673.796,521.828,673.796z"/>
				<path fill="#009696" d="M566.012,666.601L566.012,666.601c-10.215,0-18.524-8.311-18.524-18.524h-7.195
					c0,14.182,11.538,25.721,25.721,25.721l0,0L566.012,666.601L566.012,666.601z"/>
				<path fill="#009696" d="M432.904,666.601L432.904,666.601c10.216,0,18.525-8.311,18.525-18.524h7.195
					c0,14.182-11.538,25.721-25.722,25.721l0,0L432.904,666.601L432.904,666.601z"/>
			</g>
		</g>
		<g>
			<path fill="#009696" d="M377.895,716.771c14.185,0,25.724-11.539,25.724-25.722h-7.195c0,10.215-8.312,18.525-18.527,18.525
				c-10.215,0-18.524-8.312-18.524-18.525h-7.195C352.174,705.231,363.712,716.771,377.895,716.771z"/>
			<path fill="#009696" d="M422.37,716.771c14.183,0,25.722-11.539,25.722-25.722h-7.195c0,10.215-8.311,18.525-18.525,18.525
				s-18.526-8.312-18.526-18.525h-7.193C396.649,705.231,408.188,716.771,422.37,716.771z"/>
			<path fill="#009696" d="M466.554,709.575L466.554,709.575c-10.215,0-18.524-8.312-18.524-18.525h-7.195
				c0,14.183,11.538,25.722,25.721,25.722l0,0L466.554,709.575L466.554,709.575z"/>
			<path fill="#009696" d="M333.446,709.575L333.446,709.575c10.216,0,18.525-8.312,18.525-18.525h7.195
				c0,14.183-11.538,25.722-25.722,25.722l0,0L333.446,709.575L333.446,709.575z"/>
		</g>
		<g>
			<path fill="#009696" d="M500.765,610.462c0,0,20.312,2.438,30.062-4.876c0,0-22.748,1.622-31.69-21.938
				c-8.937-23.571-12.592-40.938-19.602-40.938v-22.246h-6.095v-7.921h-5.182v-6.704h-4.266v-5.181h-7.008v-14.322l4.419-4.419
				v-11.121l-4.8-4.799v-8.609l4.76-4.76v-6.817l-4.321-4.325v-7.56l4.541-4.545v-12.216l-5.193-5.195h-8.854l-13.408-44.17
				l4.266-4.266v-8.838l-4.876-4.875v-4.266l1.829-1.829v-7.009l-3.962-3.961v-3.047l2.285-2.286v-5.333l-4.418-2.438
				c0,0-4.875-34.738-17.062-34.738v-7.313h-5.791V229.15h8.838v-11.274h-3.047v-5.181h-2.438v-4.875h-2.134v-5.381h-2.438v-9.855
				h-2.539L400,167.599l-2.643,24.987h-2.538v9.855h-2.438v5.381h-2.134v4.875h-2.438v5.181h-3.046v11.274h8.836v48.451h-5.79v7.313
				c-12.188,0-17.062,34.738-17.062,34.738l-4.418,2.438v5.333l2.285,2.286v3.047l-3.962,3.961v7.009l1.828,1.829v4.266
				l-4.875,4.875v8.838l4.266,4.266l-13.408,44.169h-8.851l-5.194,5.195v12.216l4.542,4.545v7.56l-4.323,4.326v6.816l4.762,4.76
				v8.609l-4.8,4.799v11.121l4.418,4.419v14.322h-7.009v5.181h-4.266v6.704h-5.181v7.921h-6.094v22.246
				c-7.008,0-10.665,17.367-19.604,40.938c-8.939,23.561-31.691,21.938-31.691,21.938c9.751,7.313,30.065,4.876,30.065,4.876
				c-10.565,16.249-25.189,21.938-25.189,21.938H400h125.951C525.951,632.4,511.329,626.711,500.765,610.462z"/>
			<g>
				<path fill="#009696" d="M1148.021,437.019c0,0-81.266-4.466-63.115,42.626c3.195,5.444,5.581,11.459,6.947,17.935
					c6.885,32.728-14.67,64.713-48.143,71.449c-31.41,6.312-62.15-11.85-71.508-41.157h-0.034
					c-8.752-51.585-53.308-90.852-106.983-90.852c-53.686,0-98.239,39.267-106.995,90.852h-0.434
					c-9.361,29.304-40.1,47.471-71.505,41.157c-33.472-6.736-55.025-38.723-48.15-71.449c1.366-6.477,3.758-12.489,6.947-17.935
					c0,0,8.193-20.902,15.056-37.992c0.074-0.176,12.808-29.614,14.456-37.475c0,0,20.604-59.455,14.521-78.886
					c0,0,15.307-14.126-1.964-36.499c0,0,6.146-2.224,5.886-7.457c0,0-5.23,6.67-13.736,0.653
					c-8.503-6.016-12.035-11.511-14.648-18.97c0,0-4.452,5.888-3.533,10.729c0,0-11.642-7.458-10.856-22.501
					c0,0-7.461,3.53-8.373,10.072c0,0-7.327-14.391-5.629-27.08c0,0-8.112,4.317-8.235,18.313c0,0-4.062-7.325-4.843-22.633
					c-0.786-15.305-6.87-25.118-8.048-30.808c-1.175-5.689-4.709-9.812-4.709-18.447c0,0-8.046,11.774-6.675,21.39
					c1.377,9.615,1.772,32.379,3.339,41.799c1.565,9.417,4.709,16.286,5.886,18.054c0,0-4.319,10.204-19.031,10.793
					c0,0-5.104,10.204,3.333,16.875c8.436,6.672,20.801,11.97,26.1,17.659c5.296,5.695,6.275,7.852,10.204,7.852
					c3.923,0,2.946,3.14-0.59,4.906c-3.528,1.765-7.78,0.589-10.661,2.355c-2.875,1.766-9.354,9.027-9.354,14.521
					c0,5.494-3.334,9.813,8.441,9.813c11.774,0,21.588-1.178,20.211,10.398c-1.376,11.579-10.989,34.145-14.327,41.799
					c-2.137,4.906-7.979,17.624-12.008,28.352l0,0l-20.906,52.411c-2.737,9.614-4.209,19.766-4.209,30.264
					c0,60.435,48.607,109.426,108.57,109.426c53.684,0,98.248-39.265,106.996-90.851h0.432c9.361-29.303,40.104-47.47,71.509-41.157
					c22.858,4.598,40.144,20.973,46.635,41.31c8.807,51.51,53.334,90.698,106.964,90.698c59.963,0,108.571-48.991,108.571-109.423
					c0-10.501-1.472-20.651-4.21-30.267C1135.608,479.645,1126.211,446.312,1148.021,437.019z"/>
				<path fill="#009696" d="M-348.021,437.019c0,0,81.264-4.466,63.115,42.63c-3.195,5.44-5.583,11.451-6.946,17.931
					c-6.885,32.728,14.668,64.713,48.141,71.449c31.41,6.312,62.15-11.85,71.509-41.157h0.033
					c8.749-51.585,53.305-90.852,106.982-90.852c53.686,0,98.241,39.267,106.997,90.852h0.431
					c9.363,29.304,40.102,47.471,71.505,41.157c33.474-6.736,55.027-38.723,48.15-71.449c-1.364-6.479-3.756-12.489-6.944-17.931
					c0,0-8.195-20.906-15.058-37.994c-0.076-0.178-12.807-29.616-14.452-37.477c0,0-20.607-59.455-14.522-78.886
					c0,0-15.307-14.127,1.959-36.499c0,0-6.147-2.225-5.882-7.457c0,0,5.23,6.67,13.736,0.653
					c8.501-6.017,12.037-11.511,14.65-18.97c0,0,4.449,5.888,3.533,10.729c0,0,11.642-7.458,10.855-22.501
					c0,0,7.459,3.53,8.375,10.072c0,0,7.325-14.392,5.625-27.08c0,0,8.113,4.317,8.239,18.313c0,0,4.06-7.325,4.842-22.633
					c0.786-15.305,6.868-25.118,8.047-30.808c1.176-5.689,4.708-9.812,4.708-18.447c0,0,8.046,11.774,6.675,21.39
					c-1.375,9.615-1.771,32.379-3.34,41.799c-1.566,9.417-4.709,16.286-5.883,18.054c0,0,4.317,10.204,19.031,10.793
					c0,0,5.102,10.204-3.335,16.875c-8.435,6.672-20.8,11.97-26.099,17.659c-5.297,5.695-6.277,7.852-10.203,7.852
					c-3.924,0-2.948,3.14,0.587,4.906c3.531,1.765,7.78,0.588,10.66,2.355c2.879,1.766,9.358,9.027,9.358,14.521
					c0,5.494,3.333,9.813-8.441,9.813c-11.775,0-21.588-1.178-20.212,10.398c1.374,11.582,10.989,34.145,14.327,41.799
					c2.135,4.906,7.979,17.624,12.006,28.352l0,0l20.908,52.414c2.738,9.611,4.207,19.763,4.207,30.261
					c0,60.435-48.608,109.426-108.571,109.426c-53.683,0-98.245-39.265-106.994-90.851h-0.431
					c-9.363-29.303-40.104-47.475-71.509-41.157c-22.859,4.598-40.145,20.97-46.632,41.31
					c-8.811,51.51-53.338,90.698-106.966,90.698c-59.963,0-108.57-48.991-108.57-109.423c0-10.501,1.471-20.651,4.208-30.263
					C-335.609,479.647-326.21,446.311-348.021,437.019z"/>
			</g>
		</g>
	</g>
</g>
<g>
	<path fill="#009696" d="M590.144,509.906c0-10.498,1.472-20.649,4.209-30.264l20.906-52.411
		c4.029-10.729,9.871-23.446,12.008-28.353c3.338-7.654,12.951-30.22,14.327-41.799c1.377-11.576-8.437-10.398-20.211-10.398
		c-11.775,0-8.441-4.318-8.441-9.812s6.479-12.755,9.354-14.521c2.881-1.766,7.133-0.59,10.661-2.355
		c3.536-1.765,4.513-4.906,0.59-4.906c-3.929,0-4.908-2.157-10.204-7.852c-5.299-5.689-17.664-10.986-26.1-17.658
		c-8.438-6.671-3.333-16.875-3.333-16.875c14.712-0.59,19.031-10.793,19.031-10.793c-1.177-1.769-4.32-8.637-5.886-18.055
		c-1.566-9.42-1.962-32.184-3.339-41.799c-1.371-9.616,6.675-21.39,6.675-21.39c0,8.635,3.534,12.758,4.709,18.447
		c1.178,5.69,7.262,15.502,8.048,30.808c0.78,15.308,4.843,22.633,4.843,22.633c0.123-13.998,8.235-18.314,8.235-18.314
		c-1.698,12.688,5.629,27.08,5.629,27.08c0.912-6.542,8.373-10.072,8.373-10.072c-0.785,15.042,10.856,22.5,10.856,22.5
		c-0.919-4.841,3.533-10.729,3.533-10.729c2.613,7.459,6.146,12.953,14.648,18.969c8.506,6.018,13.736-0.652,13.736-0.652
		c0.261,5.232-5.886,7.457-5.886,7.457c17.271,22.372,1.964,36.498,1.964,36.498c6.084,19.432-14.521,78.887-14.521,78.887
		c-1.648,7.86-14.382,37.299-14.456,37.475c-6.862,17.09-15.056,37.992-15.056,37.992c-3.189,5.445-5.581,11.458-6.947,17.935
		c-6.875,32.727,14.679,64.713,48.15,71.449c6.714,1.35,13.395,1.572,19.845,0.814C734.065,519.544,750,461.634,750,400
		c0-193.3-156.7-350-350-350S50,206.7,50,400c0,61.634,15.934,119.544,43.903,169.843c6.45,0.758,13.13,0.535,19.843-0.814
		c33.474-6.736,55.027-38.723,48.149-71.449c-1.363-6.479-3.756-12.489-6.943-17.931c0,0-8.195-20.906-15.059-37.994
		c-0.075-0.178-12.807-29.616-14.451-37.477c0,0-20.607-59.455-14.522-78.887c0,0-15.308-14.127,1.96-36.498
		c0,0-6.148-2.225-5.883-7.457c0,0,5.23,6.67,13.736,0.652c8.501-6.017,12.036-11.51,14.65-18.969c0,0,4.449,5.888,3.532,10.729
		c0,0,11.642-7.458,10.855-22.5c0,0,7.459,3.53,8.376,10.072c0,0,7.324-14.392,5.625-27.08c0,0,8.113,4.316,8.238,18.314
		c0,0,4.061-7.325,4.843-22.633c0.786-15.306,6.868-25.118,8.047-30.808c1.176-5.689,4.708-9.812,4.708-18.447
		c0,0,8.047,11.774,6.676,21.39c-1.375,9.615-1.771,32.379-3.34,41.799c-1.566,9.418-4.709,16.286-5.883,18.055
		c0,0,4.316,10.203,19.031,10.793c0,0,5.102,10.204-3.336,16.875c-8.434,6.672-20.8,11.969-26.099,17.658
		c-5.297,5.695-6.277,7.852-10.202,7.852c-3.925,0-2.948,3.141,0.587,4.906c3.53,1.765,7.78,0.588,10.66,2.355
		c2.879,1.766,9.358,9.027,9.358,14.521s3.333,9.812-8.441,9.812c-11.774,0-21.588-1.178-20.211,10.398
		c1.373,11.582,10.988,34.145,14.326,41.799c2.135,4.906,7.979,17.624,12.006,28.353l20.908,52.415
		c2.738,9.61,4.207,19.762,4.207,30.26c0,52.18-36.238,95.822-84.731,106.773C189.218,697.879,288.521,750,400,750
		c111.479,0,210.781-52.121,274.877-133.32C626.383,605.729,590.144,562.087,590.144,509.906z M300.863,583.646
		c8.939-23.57,12.595-40.938,19.604-40.938v-22.246h6.094v-7.921h5.181v-6.704h4.267v-5.181h7.009v-14.322l-4.418-4.419v-11.121
		l4.8-4.799v-8.609l-4.762-4.76v-6.817l4.323-4.325v-7.56l-4.543-4.545v-12.216l5.195-5.195h8.851l13.408-44.169l-4.268-4.266
		v-8.838l4.875-4.874v-4.267l-1.827-1.829v-7.008l3.962-3.961v-3.048l-2.285-2.286v-5.332l4.419-2.438
		c0,0,4.874-34.738,17.062-34.738v-7.313h5.79v-48.45h-8.836v-11.274h3.046v-5.181h2.438v-4.875h2.135v-5.381h2.438v-9.855h2.538
		L400,167.6l2.642,24.986h2.539v9.855h2.438v5.381h2.134v4.875h2.438v5.181h3.047v11.274h-8.838v48.45h5.791v7.313
		c12.188,0,17.062,34.738,17.062,34.738l4.418,2.438v5.332l-2.285,2.286v3.048l3.962,3.961v7.008l-1.829,1.829v4.267l4.876,4.874
		v8.838l-4.266,4.266l13.408,44.17h8.854l5.193,5.195v12.216l-4.541,4.545v7.56l4.321,4.325v6.817l-4.76,4.76v8.609l4.8,4.799
		v11.121l-4.419,4.419v14.322h7.008v5.181h4.266v6.704h5.182v7.921h6.095v22.246c7.01,0,10.665,17.367,19.602,40.938
		c8.942,23.56,31.69,21.938,31.69,21.938c-9.75,7.314-30.062,4.876-30.062,4.876c10.564,16.249,25.187,21.938,25.187,21.937H400
		H274.048c0,0,14.624-5.688,25.189-21.938c0,0-20.314,2.438-30.065-4.876C269.172,605.585,291.924,607.208,300.863,583.646z
		 M300.676,660.977c-4.46,7.657-12.755,12.819-22.239,12.819c-9.474,0-17.761-5.152-22.224-12.798
		c-4.463,7.646-12.751,12.799-22.226,12.799v-7.196h0.001c10.216,0,18.526-8.311,18.526-18.524h0.204v-0.001h7.195
		c0,10.214,8.31,18.524,18.525,18.524s18.527-8.31,18.527-18.524h0.228h6.967h0.227c0,10.214,8.312,18.524,18.526,18.524
		c9.933,0,18.042-7.863,18.484-17.689c-0.009-0.277-0.021-0.555-0.021-0.834h0.063v-0.001h7.194c0,0.276-0.012,0.549-0.021,0.823
		c0.435,9.831,8.545,17.702,18.483,17.702h0.001v7.196c-9.379,0-17.598-5.049-22.092-12.568
		c-4.494,7.52-12.713,12.567-22.092,12.567C313.429,673.796,305.135,668.634,300.676,660.977z M466.555,716.771
		c-9.379,0-17.598-5.049-22.092-12.568c-4.494,7.52-12.714,12.568-22.093,12.568c-9.482,0-17.776-5.162-22.236-12.82
		c-4.46,7.658-12.755,12.82-22.239,12.82c-9.474,0-17.761-5.152-22.224-12.799c-4.463,7.646-12.751,12.799-22.226,12.799v-7.196
		h0.001c10.216,0,18.525-8.312,18.525-18.525h0.204h6.991h0.204c0,10.214,8.31,18.525,18.524,18.525
		c10.216,0,18.527-8.311,18.527-18.525h0.229h6.967h0.227c0,10.214,8.312,18.525,18.526,18.525c9.938,0,18.049-7.871,18.483-17.703
		c-0.009-0.273-0.021-0.547-0.021-0.822h0.062h7.133h0.062c0,0.275-0.012,0.549-0.021,0.822c0.435,9.831,8.545,17.703,18.482,17.703
		h0.001V716.771z M566.013,673.797c-9.379,0-17.599-5.049-22.092-12.568c-4.495,7.52-12.714,12.567-22.093,12.567
		c-9.481,0-17.776-5.162-22.236-12.819c-4.46,7.657-12.755,12.819-22.238,12.819c-9.475,0-17.762-5.152-22.225-12.798
		c-4.463,7.646-12.751,12.799-22.226,12.799v-7.196h0.001c10.216,0,18.525-8.311,18.525-18.524h0.204v-0.001h7.195
		c0,10.214,8.31,18.524,18.524,18.524c10.216,0,18.527-8.31,18.527-18.524h0.229h6.967h0.227c0,10.214,8.312,18.524,18.526,18.524
		c9.933,0,18.043-7.863,18.484-17.689c-0.009-0.277-0.021-0.555-0.021-0.834h0.063v-0.001h7.194c0,0.276-0.013,0.549-0.021,0.823
		c0.434,9.831,8.545,17.702,18.482,17.702h0.001V673.797z"/>
	<path fill="#FFFFFF" d="M296.965,648.075c0,10.215-8.312,18.524-18.527,18.524s-18.525-8.311-18.525-18.524h-7.195v0.001h6.991
		c0,4.708-1.278,9.122-3.496,12.922c4.463,7.646,12.75,12.798,22.224,12.798c9.483,0,17.778-5.162,22.239-12.819
		c-2.211-3.795-3.483-8.201-3.483-12.901H296.965z"/>
	<path fill="#FFFFFF" d="M345.004,661.229c-2.167-3.627-3.463-7.829-3.607-12.318c-0.441,9.826-8.551,17.689-18.484,17.689
		c-10.215,0-18.526-8.311-18.526-18.524h-0.227h-6.967c0,4.7,1.272,9.106,3.483,12.901c4.459,7.657,12.753,12.819,22.236,12.819
		C332.291,673.796,340.51,668.748,345.004,661.229z"/>
	<path fill="#FFFFFF" d="M348.613,648.898c0.009-0.274,0.021-0.547,0.021-0.823h-7.194v0.001h7.132
		C348.571,648.354,348.601,648.623,348.613,648.898z"/>
	<path fill="#FFFFFF" d="M367.097,673.797v-7.196h-0.001c-9.938,0-18.048-7.871-18.483-17.702c-0.012-0.275-0.042-0.545-0.042-0.822
		h-7.132h-0.063c0,0.279,0.012,0.557,0.021,0.834c0.144,4.489,1.44,8.691,3.607,12.318
		C349.499,668.748,357.718,673.797,367.097,673.797z"/>
	<path fill="#FFFFFF" d="M252.718,648.076h-0.204c0,10.214-8.31,18.524-18.526,18.524h-0.001v7.196
		c9.475,0,17.763-5.152,22.226-12.799c2.218-3.8,3.496-8.214,3.496-12.922H252.718z"/>
	<path fill="#FFFFFF" d="M495.881,648.075c0,10.215-8.312,18.524-18.527,18.524c-10.215,0-18.524-8.311-18.524-18.524h-7.195v0.001
		h6.991c0,4.708-1.277,9.122-3.496,12.922c4.463,7.646,12.75,12.798,22.225,12.798c9.483,0,17.778-5.162,22.238-12.819
		c-2.21-3.796-3.483-8.201-3.482-12.901H495.881z"/>
	<path fill="#FFFFFF" d="M521.829,666.6c-10.215,0-18.526-8.311-18.526-18.524h-0.227h-6.967c-0.001,4.7,1.272,9.105,3.482,12.901
		c4.46,7.657,12.755,12.819,22.236,12.819c9.379,0,17.598-5.048,22.093-12.567c-2.168-3.627-3.464-7.829-3.607-12.318
		C539.872,658.736,531.762,666.6,521.829,666.6z"/>
	<path fill="#FFFFFF" d="M547.529,648.898c0.008-0.274,0.021-0.547,0.021-0.823h-7.194v0.001h7.132
		C547.487,648.354,547.517,648.623,547.529,648.898z"/>
	<path fill="#FFFFFF" d="M547.529,648.898c-0.013-0.275-0.042-0.545-0.042-0.822h-7.132h-0.063c0,0.279,0.013,0.557,0.021,0.834
		c0.144,4.489,1.439,8.691,3.607,12.318c4.493,7.52,12.713,12.568,22.092,12.568v-7.196h-0.001
		C556.074,666.601,547.963,658.729,547.529,648.898z"/>
	<path fill="#FFFFFF" d="M451.634,648.076h-0.204c0,10.214-8.31,18.524-18.525,18.524h-0.001v7.196
		c9.475,0,17.763-5.152,22.226-12.799c2.219-3.8,3.496-8.214,3.496-12.922H451.634z"/>
	<path fill="#FFFFFF" d="M396.423,691.05c0,10.215-8.312,18.525-18.527,18.525c-10.215,0-18.524-8.312-18.524-18.525h-0.204
		c0,4.709-1.278,9.122-3.496,12.923c4.462,7.646,12.75,12.799,22.224,12.799c9.484,0,17.779-5.162,22.239-12.82
		c-2.21-3.796-3.483-8.201-3.482-12.901H396.423z"/>
	<path fill="#FFFFFF" d="M422.371,709.575c-10.215,0-18.526-8.312-18.526-18.525h-0.227h-6.967c0,4.7,1.272,9.105,3.482,12.901
		c4.46,7.658,12.754,12.82,22.236,12.82c9.379,0,17.599-5.049,22.093-12.568c-2.17-3.631-3.466-7.837-3.608-12.331
		C440.42,701.704,432.309,709.575,422.371,709.575z"/>
	<path fill="#FFFFFF" d="M448.092,691.05h-0.062c0,0.277,0.029,0.548,0.042,0.822C448.08,691.599,448.092,691.325,448.092,691.05z"
		/>
	<path fill="#FFFFFF" d="M448.071,691.872c-0.013-0.274-0.042-0.545-0.042-0.822h-7.133h-0.062c0,0.275,0.012,0.549,0.021,0.822
		c0.143,4.494,1.438,8.7,3.608,12.331c4.494,7.52,12.713,12.568,22.092,12.568v-7.196h-0.001
		C456.616,709.575,448.506,701.703,448.071,691.872z"/>
	<path fill="#FFFFFF" d="M352.176,691.05h-0.204c0,10.214-8.31,18.525-18.525,18.525h-0.001v7.196
		c9.475,0,17.763-5.152,22.226-12.799c2.218-3.801,3.496-8.214,3.496-12.923H352.176z"/>
	<path fill="#FFFFFF" d="M299.237,610.461c-10.565,16.249-25.189,21.938-25.189,21.938H400h125.951
		c0,0.002-14.622-5.688-25.187-21.937c0,0,20.312,2.438,30.062-4.876c0,0-22.748,1.622-31.69-21.938
		c-8.937-23.571-12.592-40.938-19.602-40.938v-22.246h-6.095v-7.921h-5.182v-6.704h-4.266v-5.181h-7.008v-14.322l4.419-4.419
		v-11.121l-4.8-4.799v-8.609l4.76-4.76v-6.817l-4.321-4.325v-7.56l4.541-4.545v-12.216l-5.193-5.195h-8.854l-13.408-44.17
		l4.266-4.266v-8.838l-4.876-4.874v-4.267l1.829-1.829v-7.008l-3.962-3.961v-3.048l2.285-2.286v-5.332l-4.418-2.438
		c0,0-4.875-34.738-17.062-34.738v-7.313h-5.791v-48.45h8.838v-11.274h-3.047v-5.181h-2.438v-4.875h-2.134v-5.381h-2.438v-9.855
		h-2.539L400,167.6l-2.643,24.986h-2.538v9.855h-2.438v5.381h-2.135v4.875h-2.438v5.181h-3.046v11.274h8.836v48.45h-5.79v7.313
		c-12.188,0-17.062,34.738-17.062,34.738l-4.419,2.438v5.332l2.285,2.286v3.048l-3.962,3.961v7.008l1.827,1.829v4.267l-4.875,4.874
		v8.838l4.268,4.266l-13.408,44.169h-8.851l-5.195,5.195v12.216l4.543,4.545v7.56l-4.323,4.325v6.817l4.762,4.76v8.609l-4.8,4.799
		v11.121l4.418,4.419v14.322h-7.009v5.181h-4.267v6.704h-5.181v7.921h-6.094v22.246c-7.009,0-10.665,17.367-19.604,40.938
		c-8.939,23.562-31.691,21.938-31.691,21.938C278.923,612.898,299.237,610.461,299.237,610.461z"/>
	<path fill="#FFFFFF" d="M686.252,569.028c-33.472-6.736-55.025-38.723-48.15-71.449c1.366-6.477,3.758-12.489,6.947-17.935
		c0,0,8.193-20.902,15.056-37.992c0.074-0.176,12.808-29.614,14.456-37.475c0,0,20.604-59.455,14.521-78.887
		c0,0,15.307-14.126-1.964-36.498c0,0,6.146-2.225,5.886-7.457c0,0-5.23,6.67-13.736,0.652c-8.503-6.016-12.035-11.51-14.648-18.969
		c0,0-4.452,5.888-3.533,10.729c0,0-11.642-7.458-10.856-22.5c0,0-7.461,3.53-8.373,10.072c0,0-7.327-14.392-5.629-27.08
		c0,0-8.112,4.316-8.235,18.314c0,0-4.062-7.325-4.843-22.633c-0.786-15.306-6.87-25.118-8.048-30.808
		c-1.175-5.689-4.709-9.812-4.709-18.447c0,0-8.046,11.774-6.675,21.39c1.377,9.615,1.772,32.379,3.339,41.799
		c1.565,9.418,4.709,16.286,5.886,18.055c0,0-4.319,10.203-19.031,10.793c0,0-5.104,10.204,3.333,16.875
		c8.436,6.672,20.801,11.969,26.1,17.658c5.296,5.695,6.275,7.852,10.204,7.852c3.923,0,2.946,3.141-0.59,4.906
		c-3.528,1.765-7.78,0.589-10.661,2.355c-2.875,1.766-9.354,9.027-9.354,14.521s-3.334,9.812,8.441,9.812
		c11.774,0,21.588-1.178,20.211,10.398c-1.376,11.579-10.989,34.145-14.327,41.799c-2.137,4.906-7.979,17.624-12.008,28.353
		l-20.906,52.411c-2.737,9.614-4.209,19.766-4.209,30.264c0,52.181,36.239,95.823,84.733,106.773
		c11.607-14.704,22.059-30.362,31.22-46.837C699.646,570.601,692.966,570.378,686.252,569.028z"/>
	<path fill="#FFFFFF" d="M209.854,509.906c0-10.498-1.469-20.649-4.207-30.26l-20.908-52.415
		c-4.027-10.729-9.871-23.446-12.006-28.353c-3.338-7.654-12.953-30.217-14.326-41.799c-1.377-11.576,8.437-10.398,20.211-10.398
		c11.774,0,8.441-4.318,8.441-9.812s-6.479-12.755-9.358-14.521c-2.88-1.767-7.13-0.59-10.66-2.355
		c-3.535-1.765-4.512-4.906-0.587-4.906c3.925,0,4.905-2.157,10.202-7.852c5.299-5.689,17.665-10.986,26.099-17.658
		c8.438-6.671,3.336-16.875,3.336-16.875c-14.715-0.59-19.031-10.793-19.031-10.793c1.174-1.769,4.317-8.637,5.883-18.055
		c1.569-9.42,1.965-32.184,3.34-41.799c1.371-9.616-6.676-21.39-6.676-21.39c0,8.635-3.532,12.758-4.708,18.447
		c-1.179,5.69-7.261,15.502-8.047,30.808c-0.782,15.308-4.843,22.633-4.843,22.633c-0.125-13.998-8.238-18.314-8.238-18.314
		c1.699,12.688-5.625,27.08-5.625,27.08c-0.917-6.542-8.376-10.072-8.376-10.072c0.787,15.042-10.855,22.5-10.855,22.5
		c0.917-4.841-3.532-10.729-3.532-10.729c-2.614,7.459-6.149,12.952-14.65,18.969c-8.506,6.018-13.736-0.652-13.736-0.652
		c-0.265,5.232,5.883,7.457,5.883,7.457c-17.268,22.371-1.96,36.498-1.96,36.498c-6.085,19.432,14.522,78.887,14.522,78.887
		c1.644,7.86,14.376,37.299,14.451,37.477c6.864,17.088,15.059,37.994,15.059,37.994c3.187,5.441,5.58,11.451,6.943,17.931
		c6.878,32.727-14.675,64.713-48.149,71.449c-6.713,1.35-13.393,1.572-19.843,0.814c9.161,16.475,19.612,32.133,31.219,46.837
		C173.616,605.729,209.854,562.086,209.854,509.906z"/>
</g>
</svg>
