<?xml version="1.0" encoding="utf-8"?>
<!-- Generator: Adobe Illustrator 15.0.0, SVG Export Plug-In . SVG Version: 6.00 Build 0)  -->
<!DOCTYPE svg PUBLIC "-//W3C//DTD SVG 1.1//EN" "http://www.w3.org/Graphics/SVG/1.1/DTD/svg11.dtd">
<svg version="1.1" xmlns="http://www.w3.org/2000/svg" xmlns:xlink="http://www.w3.org/1999/xlink" x="0px" y="0px" width="800px"
	 height="800px" viewBox="0 0 800 800" enable-background="new 0 0 800 800" xml:space="preserve">
<g id="Layer_3" display="none">
	<path display="inline" fill="#FF0000" d="M137.604,398.354"/>
	<g display="inline">
		<defs>
			<circle id="SVGID_1_" cx="400" cy="400" r="350"/>
		</defs>
		<clipPath id="SVGID_2_">
			<use xlink:href="#SVGID_1_"  overflow="visible"/>
		</clipPath>
		<path clip-path="url(#SVGID_2_)" fill="none" d="M137.604,398.354"/>
	</g>
	<circle display="inline" fill="none" cx="400" cy="400" r="350"/>
	<g display="inline">
		<defs>
			<circle id="SVGID_3_" cx="400" cy="400" r="350"/>
		</defs>
		<use xlink:href="#SVGID_3_"  overflow="visible" fill="#ED1C24"/>
		<clipPath id="SVGID_4_">
			<use xlink:href="#SVGID_3_"  overflow="visible"/>
		</clipPath>
		<g clip-path="url(#SVGID_4_)">
			<g>
				<g>
					<path fill="#FFFFFF" d="M278.437,673.796c14.184,0,25.723-11.539,25.723-25.721h-7.195c0,10.215-8.312,18.525-18.527,18.525
						c-10.215,0-18.525-8.311-18.525-18.525h-7.195C252.716,662.257,264.254,673.796,278.437,673.796z"/>
					<path fill="#FFFFFF" d="M322.912,673.796c14.183,0,25.722-11.539,25.722-25.721h-7.195c0,10.215-8.311,18.525-18.526,18.525
						c-10.215,0-18.526-8.311-18.526-18.525h-7.194C297.191,662.257,308.729,673.796,322.912,673.796z"/>
					<path fill="#FFFFFF" d="M367.096,666.601L367.096,666.601c-10.215,0-18.525-8.311-18.525-18.525h-7.195
						c0,14.182,11.538,25.721,25.721,25.721l0,0V666.601z"/>
					<path fill="#FFFFFF" d="M233.988,666.601L233.988,666.601c10.216,0,18.526-8.311,18.526-18.525h7.195
						c0,14.182-11.538,25.721-25.722,25.721l0,0V666.601z"/>
				</g>
				<g>
					<path fill="#FFFFFF" d="M477.353,673.796c14.184,0,25.723-11.539,25.723-25.721h-7.195c0,10.215-8.312,18.525-18.527,18.525
						c-10.215,0-18.525-8.311-18.525-18.525h-7.195C451.632,662.257,463.17,673.796,477.353,673.796z"/>
					<path fill="#FFFFFF" d="M521.828,673.796c14.183,0,25.722-11.539,25.722-25.721h-7.195c0,10.215-8.311,18.525-18.526,18.525
						c-10.215,0-18.526-8.311-18.526-18.525h-7.194C496.107,662.257,507.646,673.796,521.828,673.796z"/>
					<path fill="#FFFFFF" d="M566.012,666.601L566.012,666.601c-10.215,0-18.525-8.311-18.525-18.525h-7.195
						c0,14.182,11.538,25.721,25.721,25.721l0,0V666.601z"/>
					<path fill="#FFFFFF" d="M432.904,666.601L432.904,666.601c10.216,0,18.526-8.311,18.526-18.525h7.195
						c0,14.182-11.538,25.721-25.722,25.721l0,0V666.601z"/>
				</g>
			</g>
			<g>
				<path fill="#FFFFFF" d="M377.895,716.771c14.184,0,25.723-11.539,25.723-25.721h-7.195c0,10.215-8.312,18.525-18.527,18.525
					c-10.215,0-18.525-8.311-18.525-18.525h-7.195C352.174,705.231,363.712,716.771,377.895,716.771z"/>
				<path fill="#FFFFFF" d="M422.37,716.771c14.183,0,25.722-11.539,25.722-25.721h-7.195c0,10.215-8.311,18.525-18.526,18.525
					c-10.215,0-18.526-8.311-18.526-18.525h-7.194C396.649,705.231,408.188,716.771,422.37,716.771z"/>
				<path fill="#FFFFFF" d="M466.554,709.575L466.554,709.575c-10.215,0-18.525-8.311-18.525-18.525h-7.195
					c0,14.182,11.538,25.721,25.721,25.721l0,0V709.575z"/>
				<path fill="#FFFFFF" d="M333.446,709.575L333.446,709.575c10.216,0,18.526-8.311,18.526-18.525h7.195
					c0,14.182-11.538,25.721-25.722,25.721l0,0V709.575z"/>
			</g>
			<g>
				<path fill="#FFFFFF" d="M500.765,610.462c0,0,20.312,2.438,30.062-4.876c0,0-22.748,1.622-31.69-21.938
					c-8.937-23.571-12.592-40.938-19.602-40.938v-22.246h-6.095v-7.921h-5.181v-6.704h-4.266v-5.181h-7.008v-14.322l4.419-4.419
					v-11.121l-4.8-4.799v-8.609l4.76-4.76v-6.817l-4.321-4.326v-7.559l4.541-4.545v-12.216l-5.193-5.195h-8.854L434.129,367.8
					l4.266-4.266v-8.838l-4.876-4.874v-4.267l1.829-1.829v-7.008l-3.962-3.961v-3.048l2.285-2.286v-5.332l-4.418-2.438
					c0,0-4.875-34.738-17.063-34.738v-7.313h-5.791v-48.45h8.838v-11.274h-3.047v-5.181h-2.438v-4.875h-2.134v-5.381h-2.437v-9.855
					h-2.539L400,167.6l-2.643,24.986h-2.538v9.855h-2.437v5.381h-2.135v4.875h-2.438v5.181h-3.046v11.274h8.836v48.45h-5.79v7.313
					c-12.188,0-17.062,34.738-17.062,34.738l-4.419,2.438v5.332l2.285,2.286v3.048l-3.962,3.961v7.008l1.828,1.829v4.267
					l-4.875,4.874v8.838l4.267,4.266l-13.408,44.169h-8.851l-5.195,5.195v12.216l4.543,4.545v7.559l-4.323,4.326v6.817l4.761,4.76
					v8.609l-4.799,4.799v11.121l4.418,4.419v14.322h-7.009v5.181h-4.267v6.704h-5.18v7.921h-6.094v22.246
					c-7.009,0-10.665,17.367-19.604,40.938c-8.939,23.561-31.691,21.938-31.691,21.938c9.751,7.313,30.065,4.876,30.065,4.876
					c-10.565,16.249-25.189,21.938-25.189,21.938H400h125.951C525.951,632.4,511.329,626.711,500.765,610.462z"/>
				<g>
					<path fill="#FFFFFF" d="M1148.021,437.019c0,0-81.265-4.466-63.115,42.626c3.196,5.444,5.581,11.458,6.947,17.934
						c6.885,32.728-14.669,64.713-48.142,71.449c-31.41,6.313-62.151-11.849-71.508-41.157h-0.034
						c-8.752-51.585-53.308-90.852-106.984-90.852c-53.685,0-98.239,39.267-106.995,90.852h-0.433
						c-9.362,29.304-40.1,47.471-71.505,41.157c-33.472-6.736-55.026-38.722-48.15-71.449c1.366-6.476,3.757-12.489,6.947-17.934
						c0,0,8.193-20.903,15.055-37.993c0.075-0.175,12.808-29.614,14.456-37.474c0,0,20.605-59.455,14.521-78.887
						c0,0,15.307-14.126-1.964-36.498c0,0,6.147-2.225,5.886-7.457c0,0-5.231,6.67-13.736,0.652
						c-8.503-6.016-12.036-11.51-14.649-18.969c0,0-4.452,5.888-3.533,10.729c0,0-11.642-7.458-10.856-22.5
						c0,0-7.461,3.53-8.374,10.072c0,0-7.327-14.392-5.628-27.08c0,0-8.113,4.316-8.236,18.314c0,0-4.062-7.325-4.843-22.633
						c-0.786-15.306-6.87-25.118-8.047-30.808c-1.175-5.689-4.709-9.812-4.709-18.447c0,0-8.046,11.774-6.675,21.39
						c1.377,9.615,1.772,32.379,3.339,41.799c1.565,9.418,4.709,16.286,5.885,18.055c0,0-4.319,10.203-19.031,10.793
						c0,0-5.104,10.204,3.333,16.875c8.436,6.672,20.801,11.969,26.1,17.658c5.296,5.695,6.275,7.852,10.204,7.852
						c3.923,0,2.946,3.141-0.59,4.906c-3.528,1.765-7.78,0.589-10.661,2.355c-2.875,1.766-9.354,9.027-9.354,14.521
						s-3.334,9.812,8.441,9.812c11.774,0,21.588-1.178,20.211,10.398c-1.376,11.579-10.989,34.145-14.327,41.799
						c-2.137,4.906-7.979,17.624-12.008,28.352l0,0l-20.906,52.412c-2.738,9.614-4.209,19.765-4.209,30.263
						c0,60.435,48.607,109.426,108.57,109.426c53.684,0,98.248-39.265,106.996-90.851h0.432
						c9.361-29.302,40.104-47.469,71.509-41.157c22.858,4.598,40.143,20.973,46.634,41.31c8.807,51.51,53.334,90.698,106.964,90.698
						c59.963,0,108.571-48.991,108.571-109.423c0-10.501-1.471-20.651-4.21-30.266
						C1135.608,479.645,1126.211,446.312,1148.021,437.019z"/>
					<path fill="#FFFFFF" d="M-348.021,437.019c0,0,81.264-4.466,63.115,42.629c-3.195,5.441-5.582,11.452-6.946,17.931
						c-6.886,32.728,14.669,64.713,48.141,71.449c31.409,6.313,62.149-11.849,71.509-41.157h0.033
						c8.748-51.585,53.305-90.852,106.982-90.852c53.686,0,98.241,39.267,106.997,90.852h0.431
						c9.363,29.304,40.102,47.471,71.505,41.157c33.474-6.736,55.027-38.722,48.149-71.449c-1.363-6.479-3.756-12.489-6.943-17.931
						c0,0-8.195-20.906-15.059-37.994c-0.075-0.177-12.807-29.616-14.451-37.476c0,0-20.607-59.455-14.522-78.887
						c0,0-15.308-14.127,1.96-36.498c0,0-6.148-2.225-5.883-7.457c0,0,5.23,6.67,13.736,0.652
						c8.501-6.017,12.036-11.51,14.65-18.969c0,0,4.449,5.888,3.532,10.729c0,0,11.642-7.458,10.855-22.5
						c0,0,7.459,3.53,8.376,10.072c0,0,7.324-14.392,5.625-27.08c0,0,8.113,4.316,8.238,18.314c0,0,4.061-7.325,4.843-22.633
						c0.786-15.306,6.868-25.118,8.047-30.808c1.176-5.689,4.708-9.812,4.708-18.447c0,0,8.047,11.774,6.676,21.39
						c-1.375,9.615-1.771,32.379-3.34,41.799c-1.566,9.418-4.709,16.286-5.883,18.055c0,0,4.316,10.203,19.031,10.793
						c0,0,5.102,10.204-3.336,16.875c-8.434,6.672-20.8,11.969-26.099,17.658c-5.297,5.695-6.277,7.852-10.202,7.852
						s-2.948,3.141,0.587,4.906c3.53,1.765,7.78,0.588,10.66,2.355c2.879,1.766,9.358,9.027,9.358,14.521s3.333,9.812-8.441,9.812
						s-21.588-1.178-20.211,10.398c1.373,11.582,10.988,34.145,14.326,41.799c2.135,4.906,7.979,17.624,12.006,28.352l0,0
						l20.908,52.415c2.738,9.611,4.207,19.762,4.207,30.26c0,60.435-48.607,109.426-108.57,109.426
						c-53.684,0-98.246-39.265-106.994-90.851h-0.432c-9.363-29.302-40.104-47.474-71.509-41.157
						c-22.859,4.598-40.146,20.97-46.632,41.31c-8.811,51.51-53.338,90.698-106.967,90.698c-59.963,0-108.57-48.991-108.57-109.423
						c0-10.501,1.471-20.651,4.209-30.263C-335.609,479.647-326.211,446.311-348.021,437.019z"/>
				</g>
			</g>
		</g>
	</g>
</g>
<g id="Layer_2">
	<g>
		<g>
			<circle fill="#FFFFFF" cx="400" cy="400" r="350"/>
			<path fill="#009696" d="M760,400c0-48.595-9.52-95.742-28.295-140.131c-18.132-42.87-44.088-81.369-77.146-114.427
				s-71.558-59.015-114.428-77.147C495.742,49.52,448.596,40,400,40c-48.595,0-95.742,9.52-140.131,28.294
				c-42.87,18.132-81.369,44.088-114.427,77.147s-59.015,71.558-77.147,114.427C49.52,304.258,40,351.405,40,400
				c0,48.596,9.52,95.742,28.294,140.131c2.747,6.494,5.673,12.889,8.777,19.179c17.382,35.23,40.319,67.198,68.37,95.249
				c33.059,33.059,71.558,59.015,114.427,77.146C304.258,750.48,351.405,760,400,760c48.596,0,95.742-9.52,140.131-28.295
				c42.87-18.132,81.369-44.088,114.428-77.146c13.279-13.279,25.391-27.45,36.331-42.416c-4.601,4.147-9.743,7.77-14.89,10.857
				c5.146-3.088,10.289-6.71,14.89-10.857c16.296-22.291,29.967-46.362,40.815-72.012C750.48,495.742,760,448.596,760,400z M400,740
				C212.523,740,60,587.477,60,400S212.523,60,400,60s340,152.523,340,340S587.477,740,400,740z"/>
		</g>
		<g>
			<defs>
				<circle id="SVGID_5_" cx="400" cy="400" r="350"/>
			</defs>
			<clipPath id="SVGID_6_">
				<use xlink:href="#SVGID_5_"  overflow="visible"/>
			</clipPath>
			<path clip-path="url(#SVGID_6_)" fill="#FFFFFF" d="M137.604,398.354"/>
		</g>
		<g>
			<g>
				<path fill="#009696" d="M278.437,673.796c14.184,0,25.723-11.539,25.723-25.721h-7.195c0,10.215-8.312,18.525-18.527,18.525
					c-10.215,0-18.525-8.311-18.525-18.525h-7.195C252.716,662.257,264.254,673.796,278.437,673.796z"/>
				<path fill="#009696" d="M322.912,673.796c14.183,0,25.722-11.539,25.722-25.721h-7.195c0,10.215-8.311,18.525-18.526,18.525
					c-10.215,0-18.526-8.311-18.526-18.525h-7.194C297.191,662.257,308.729,673.796,322.912,673.796z"/>
				<path fill="#009696" d="M367.096,666.601L367.096,666.601c-10.215,0-18.525-8.311-18.525-18.525h-7.195
					c0,14.182,11.538,25.721,25.721,25.721l0,0V666.601z"/>
				<path fill="#009696" d="M233.988,666.601L233.988,666.601c10.216,0,18.526-8.311,18.526-18.525h7.195
					c0,14.182-11.538,25.721-25.722,25.721l0,0V666.601z"/>
			</g>
			<g>
				<path fill="#009696" d="M477.353,673.796c14.184,0,25.723-11.539,25.723-25.721h-7.195c0,10.215-8.312,18.525-18.527,18.525
					c-10.215,0-18.525-8.311-18.525-18.525h-7.195C451.632,662.257,463.17,673.796,477.353,673.796z"/>
				<path fill="#009696" d="M521.828,673.796c14.183,0,25.722-11.539,25.722-25.721h-7.195c0,10.215-8.311,18.525-18.526,18.525
					c-10.215,0-18.526-8.311-18.526-18.525h-7.194C496.107,662.257,507.646,673.796,521.828,673.796z"/>
				<path fill="#009696" d="M566.012,666.601L566.012,666.601c-10.215,0-18.525-8.311-18.525-18.525h-7.195
					c0,14.182,11.538,25.721,25.721,25.721l0,0V666.601z"/>
				<path fill="#009696" d="M432.904,666.601L432.904,666.601c10.216,0,18.526-8.311,18.526-18.525h7.195
					c0,14.182-11.538,25.721-25.722,25.721l0,0V666.601z"/>
			</g>
		</g>
		<g>
			<path fill="#009696" d="M377.895,716.771c14.184,0,25.723-11.539,25.723-25.721h-7.195c0,10.215-8.312,18.525-18.527,18.525
				c-10.215,0-18.525-8.311-18.525-18.525h-7.195C352.174,705.231,363.712,716.771,377.895,716.771z"/>
			<path fill="#009696" d="M422.37,716.771c14.183,0,25.722-11.539,25.722-25.721h-7.195c0,10.215-8.311,18.525-18.526,18.525
				c-10.215,0-18.526-8.311-18.526-18.525h-7.194C396.649,705.231,408.188,716.771,422.37,716.771z"/>
			<path fill="#009696" d="M466.554,709.575L466.554,709.575c-10.215,0-18.525-8.311-18.525-18.525h-7.195
				c0,14.182,11.538,25.721,25.721,25.721l0,0V709.575z"/>
			<path fill="#009696" d="M333.446,709.575L333.446,709.575c10.216,0,18.526-8.311,18.526-18.525h7.195
				c0,14.182-11.538,25.721-25.722,25.721l0,0V709.575z"/>
		</g>
		<g>
			<path fill="#009696" d="M500.765,610.462c0,0,20.312,2.438,30.062-4.876c0,0-22.748,1.622-31.69-21.938
				c-8.937-23.571-12.592-40.938-19.602-40.938v-22.246h-6.095v-7.921h-5.181v-6.704h-4.266v-5.181h-7.008v-14.322l4.419-4.419
				v-11.121l-4.8-4.799v-8.609l4.76-4.76v-6.817l-4.321-4.326v-7.559l4.541-4.545v-12.216l-5.193-5.195h-8.854L434.129,367.8
				l4.266-4.266v-8.838l-4.876-4.875v-4.266l1.829-1.829v-7.009l-3.962-3.961v-3.047l2.285-2.286v-5.333l-4.418-2.438
				c0,0-4.875-34.738-17.063-34.738v-7.313h-5.791v-48.451h8.838v-11.274h-3.047v-5.181h-2.438v-4.875h-2.134v-5.381h-2.437v-9.855
				h-2.539L400,167.599l-2.643,24.987h-2.538v9.855h-2.437v5.381h-2.134v4.875h-2.438v5.181h-3.046v11.274h8.836v48.451h-5.79v7.313
				c-12.189,0-17.063,34.738-17.063,34.738l-4.418,2.438v5.333l2.285,2.286v3.047l-3.962,3.961v7.009l1.828,1.829v4.266
				l-4.875,4.875v8.838l4.266,4.266l-13.408,44.169h-8.851l-5.194,5.195v12.216l4.542,4.545v7.559l-4.323,4.326v6.817l4.761,4.76
				v8.609l-4.799,4.799v11.121l4.418,4.419v14.322h-7.009v5.181h-4.266v6.704h-5.18v7.921h-6.094v22.246
				c-7.008,0-10.665,17.367-19.604,40.938c-8.939,23.561-31.691,21.938-31.691,21.938c9.751,7.313,30.065,4.876,30.065,4.876
				c-10.565,16.249-25.189,21.938-25.189,21.938H400h125.951C525.951,632.4,511.329,626.711,500.765,610.462z"/>
			<g>
				<path fill="#009696" d="M719.066,566.885c-10.897,4.294-20.443,4.629-32.813,2.143c-33.472-6.736-55.026-38.722-48.15-71.449
					c1.366-6.476,3.757-12.489,6.947-17.934c0,0,8.193-20.903,15.055-37.993c0.075-0.175,12.808-29.614,14.456-37.474
					c0,0,20.605-59.455,14.521-78.886c0,0,15.307-14.126-1.964-36.499c0,0,6.147-2.224,5.886-7.457c0,0-5.231,6.67-13.736,0.653
					c-8.503-6.016-12.036-11.511-14.649-18.97c0,0-4.452,5.888-3.533,10.729c0,0-11.642-7.458-10.856-22.501
					c0,0-7.461,3.53-8.374,10.072c0,0-7.327-14.391-5.628-27.08c0,0-8.113,4.317-8.236,18.314c0,0-4.062-7.325-4.843-22.633
					c-0.786-15.305-6.87-25.118-8.047-30.808c-1.175-5.689-4.709-9.812-4.709-18.447c0,0-8.046,11.774-6.675,21.39
					c1.377,9.615,1.772,32.379,3.339,41.799c1.565,9.417,4.709,16.286,5.885,18.054c0,0-4.319,10.204-19.031,10.793
					c0,0-5.104,10.204,3.333,16.875c8.436,6.672,20.801,11.97,26.1,17.659c5.296,5.695,6.275,7.852,10.204,7.852
					c3.923,0,2.946,3.14-0.59,4.906c-3.528,1.765-7.78,0.589-10.661,2.355c-2.875,1.766-9.354,9.027-9.354,14.521
					c0,5.494-3.334,9.813,8.441,9.813c11.774,0,21.588-1.178,20.211,10.398c-1.376,11.579-10.989,34.145-14.327,41.799
					c-2.137,4.906-7.979,17.624-12.008,28.351l-20.906,52.412c-2.738,9.614-4.209,19.765-4.209,30.263
					c0,55.156,40.49,100.773,93.146,108.321C690.658,612.959,713.385,578.831,719.066,566.885z"/>
				<path fill="#009696" d="M209.855,509.907c0-10.498-1.469-20.648-4.207-30.26l-20.908-52.415
					c-4.026-10.728-9.871-23.445-12.006-28.351c-3.337-7.654-12.953-30.217-14.327-41.799c-1.376-11.576,8.437-10.398,20.212-10.398
					c11.774,0,8.441-4.319,8.441-9.813c0-5.495-6.479-12.755-9.358-14.521c-2.88-1.767-7.129-0.591-10.66-2.355
					c-3.535-1.766-4.512-4.906-0.587-4.906c3.925,0,4.906-2.157,10.203-7.852c5.299-5.689,17.665-10.986,26.099-17.659
					c8.437-6.67,3.335-16.875,3.335-16.875c-14.714-0.59-19.031-10.793-19.031-10.793c1.174-1.768,4.317-8.637,5.883-18.054
					c1.569-9.42,1.964-32.184,3.34-41.799c1.371-9.615-6.675-21.39-6.675-21.39c0,8.635-3.533,12.758-4.708,18.447
					c-1.179,5.69-7.261,15.502-8.047,30.808c-0.783,15.308-4.842,22.633-4.842,22.633c-0.125-13.998-8.239-18.314-8.239-18.314
					c1.699,12.688-5.625,27.08-5.625,27.08c-0.917-6.542-8.375-10.072-8.375-10.072c0.786,15.042-10.855,22.501-10.855,22.501
					c0.917-4.841-3.533-10.729-3.533-10.729c-2.614,7.459-6.149,12.953-14.65,18.97c-8.505,6.017-13.736-0.653-13.736-0.653
					c-0.265,5.232,5.882,7.457,5.882,7.457c-17.267,22.372-1.959,36.499-1.959,36.499c-6.084,19.431,14.522,78.886,14.522,78.886
					c1.645,7.859,14.376,37.299,14.452,37.476c6.863,17.088,15.058,37.994,15.058,37.994c3.188,5.441,5.58,11.452,6.944,17.931
					c6.877,32.728-14.676,64.713-48.15,71.449c-6.738,1.354-13.444,1.573-19.916,0.806c10.744,14.247,19.084,29.287,22.669,48.426
					C169.257,610.801,209.855,565.137,209.855,509.907z"/>
			</g>
		</g>
	</g>
</g>
<g id="Layer_4" display="none">
	<path display="inline" fill="#FF0000" d="M400,400"/>
	<g display="inline">
		<defs>
			<circle id="SVGID_7_" cx="400" cy="400" r="350"/>
		</defs>
		<clipPath id="SVGID_8_">
			<use xlink:href="#SVGID_7_"  overflow="visible"/>
		</clipPath>
		<path clip-path="url(#SVGID_8_)" fill="none" d="M137.604,398.354"/>
	</g>
	<circle display="inline" fill="none" cx="400" cy="400" r="350"/>
	<g display="inline">
		<defs>
			<circle id="SVGID_9_" cx="400" cy="400" r="350"/>
		</defs>
		<use xlink:href="#SVGID_9_"  overflow="visible" fill="#009696"/>
		<clipPath id="SVGID_10_">
			<use xlink:href="#SVGID_9_"  overflow="visible"/>
		</clipPath>
		<g clip-path="url(#SVGID_10_)">
			<g>
				<g>
					<path fill="#FFFFFF" d="M278.437,673.796c14.184,0,25.723-11.539,25.723-25.721h-7.195c0,10.215-8.312,18.525-18.527,18.525
						c-10.215,0-18.525-8.311-18.525-18.525h-7.195C252.716,662.257,264.254,673.796,278.437,673.796z"/>
					<path fill="#FFFFFF" d="M322.912,673.796c14.183,0,25.722-11.539,25.722-25.721h-7.195c0,10.215-8.311,18.525-18.526,18.525
						c-10.215,0-18.526-8.311-18.526-18.525h-7.194C297.191,662.257,308.729,673.796,322.912,673.796z"/>
					<path fill="#FFFFFF" d="M367.096,666.601L367.096,666.601c-10.215,0-18.525-8.311-18.525-18.525h-7.195
						c0,14.182,11.538,25.721,25.721,25.721l0,0V666.601z"/>
					<path fill="#FFFFFF" d="M233.988,666.601L233.988,666.601c10.216,0,18.526-8.311,18.526-18.525h7.195
						c0,14.182-11.538,25.721-25.722,25.721l0,0V666.601z"/>
				</g>
				<g>
					<path fill="#FFFFFF" d="M477.353,673.796c14.184,0,25.723-11.539,25.723-25.721h-7.195c0,10.215-8.312,18.525-18.527,18.525
						c-10.215,0-18.525-8.311-18.525-18.525h-7.195C451.632,662.257,463.17,673.796,477.353,673.796z"/>
					<path fill="#FFFFFF" d="M521.828,673.796c14.183,0,25.722-11.539,25.722-25.721h-7.195c0,10.215-8.311,18.525-18.526,18.525
						c-10.215,0-18.526-8.311-18.526-18.525h-7.194C496.107,662.257,507.646,673.796,521.828,673.796z"/>
					<path fill="#FFFFFF" d="M566.012,666.601L566.012,666.601c-10.215,0-18.525-8.311-18.525-18.525h-7.195
						c0,14.182,11.538,25.721,25.721,25.721l0,0V666.601z"/>
					<path fill="#FFFFFF" d="M432.904,666.601L432.904,666.601c10.216,0,18.526-8.311,18.526-18.525h7.195
						c0,14.182-11.538,25.721-25.722,25.721l0,0V666.601z"/>
				</g>
			</g>
			<g>
				<path fill="#FFFFFF" d="M377.895,716.771c14.184,0,25.723-11.539,25.723-25.721h-7.195c0,10.215-8.312,18.525-18.527,18.525
					c-10.215,0-18.525-8.311-18.525-18.525h-7.195C352.174,705.231,363.712,716.771,377.895,716.771z"/>
				<path fill="#FFFFFF" d="M422.37,716.771c14.183,0,25.722-11.539,25.722-25.721h-7.195c0,10.215-8.311,18.525-18.526,18.525
					c-10.215,0-18.526-8.311-18.526-18.525h-7.194C396.649,705.231,408.188,716.771,422.37,716.771z"/>
				<path fill="#FFFFFF" d="M466.554,709.575L466.554,709.575c-10.215,0-18.525-8.311-18.525-18.525h-7.195
					c0,14.182,11.538,25.721,25.721,25.721l0,0V709.575z"/>
				<path fill="#FFFFFF" d="M333.446,709.575L333.446,709.575c10.216,0,18.526-8.311,18.526-18.525h7.195
					c0,14.182-11.538,25.721-25.722,25.721l0,0V709.575z"/>
			</g>
			<g>
				<path fill="#FFFFFF" d="M500.765,610.462c0,0,20.312,2.438,30.062-4.876c0,0-22.748,1.622-31.69-21.938
					c-8.937-23.571-12.592-40.938-19.602-40.938v-22.246h-6.095v-7.921h-5.181v-6.704h-4.266v-5.181h-7.008v-14.322l4.419-4.419
					v-11.121l-4.8-4.799v-8.609l4.76-4.76v-6.817l-4.321-4.326v-7.559l4.541-4.545v-12.216l-5.193-5.195h-8.854L434.129,367.8
					l4.266-4.266v-8.838l-4.876-4.874v-4.267l1.829-1.829v-7.008l-3.962-3.961v-3.048l2.285-2.286v-5.332l-4.418-2.438
					c0,0-4.875-34.738-17.063-34.738v-7.313h-5.791v-48.45h8.838v-11.274h-3.047v-5.181h-2.438v-4.875h-2.134v-5.381h-2.437v-9.855
					h-2.539L400,167.6l-2.643,24.986h-2.538v9.855h-2.437v5.381h-2.135v4.875h-2.438v5.181h-3.046v11.274h8.836v48.45h-5.79v7.313
					c-12.188,0-17.062,34.738-17.062,34.738l-4.419,2.438v5.332l2.285,2.286v3.048l-3.962,3.961v7.008l1.828,1.829v4.267
					l-4.875,4.874v8.838l4.267,4.266l-13.408,44.169h-8.851l-5.195,5.195v12.216l4.543,4.545v7.559l-4.323,4.326v6.817l4.761,4.76
					v8.609l-4.799,4.799v11.121l4.418,4.419v14.322h-7.009v5.181h-4.267v6.704h-5.18v7.921h-6.094v22.246
					c-7.009,0-10.665,17.367-19.604,40.938c-8.939,23.561-31.691,21.938-31.691,21.938c9.751,7.313,30.065,4.876,30.065,4.876
					c-10.565,16.249-25.189,21.938-25.189,21.938H400h125.951C525.951,632.4,511.329,626.711,500.765,610.462z"/>
				<g>
					<path fill="#FFFFFF" d="M1148.021,437.019c0,0-81.265-4.466-63.115,42.626c3.196,5.444,5.581,11.458,6.947,17.934
						c6.885,32.728-14.669,64.713-48.142,71.449c-31.41,6.313-62.151-11.849-71.508-41.157h-0.034
						c-8.752-51.585-53.308-90.852-106.984-90.852c-53.685,0-98.239,39.267-106.995,90.852h-0.433
						c-9.362,29.304-40.1,47.471-71.505,41.157c-33.472-6.736-55.026-38.722-48.15-71.449c1.366-6.476,3.757-12.489,6.947-17.934
						c0,0,8.193-20.903,15.055-37.993c0.075-0.175,12.808-29.614,14.456-37.474c0,0,20.605-59.455,14.521-78.887
						c0,0,15.307-14.126-1.964-36.498c0,0,6.147-2.225,5.886-7.457c0,0-5.231,6.67-13.736,0.652
						c-8.503-6.016-12.036-11.51-14.649-18.969c0,0-4.452,5.888-3.533,10.729c0,0-11.642-7.458-10.856-22.5
						c0,0-7.461,3.53-8.374,10.072c0,0-7.327-14.392-5.628-27.08c0,0-8.113,4.316-8.236,18.314c0,0-4.062-7.325-4.843-22.633
						c-0.786-15.306-6.87-25.118-8.047-30.808c-1.175-5.689-4.709-9.812-4.709-18.447c0,0-8.046,11.774-6.675,21.39
						c1.377,9.615,1.772,32.379,3.339,41.799c1.565,9.418,4.709,16.286,5.885,18.055c0,0-4.319,10.203-19.031,10.793
						c0,0-5.104,10.204,3.333,16.875c8.436,6.672,20.801,11.969,26.1,17.658c5.296,5.695,6.275,7.852,10.204,7.852
						c3.923,0,2.946,3.141-0.59,4.906c-3.528,1.765-7.78,0.589-10.661,2.355c-2.875,1.766-9.354,9.027-9.354,14.521
						s-3.334,9.812,8.441,9.812c11.774,0,21.588-1.178,20.211,10.398c-1.376,11.579-10.989,34.145-14.327,41.799
						c-2.137,4.906-7.979,17.624-12.008,28.352l0,0l-20.906,52.412c-2.738,9.614-4.209,19.765-4.209,30.263
						c0,60.435,48.607,109.426,108.57,109.426c53.684,0,98.248-39.265,106.996-90.851h0.432
						c9.361-29.302,40.104-47.469,71.509-41.157c22.858,4.598,40.143,20.973,46.634,41.31c8.807,51.51,53.334,90.698,106.964,90.698
						c59.963,0,108.571-48.991,108.571-109.423c0-10.501-1.471-20.651-4.21-30.266
						C1135.608,479.645,1126.211,446.312,1148.021,437.019z"/>
					<path fill="#FFFFFF" d="M-348.021,437.019c0,0,81.264-4.466,63.115,42.629c-3.195,5.441-5.582,11.452-6.946,17.931
						c-6.886,32.728,14.669,64.713,48.141,71.449c31.409,6.313,62.149-11.849,71.509-41.157h0.033
						c8.748-51.585,53.305-90.852,106.982-90.852c53.686,0,98.241,39.267,106.997,90.852h0.431
						c9.363,29.304,40.102,47.471,71.505,41.157c33.474-6.736,55.027-38.722,48.149-71.449c-1.363-6.479-3.756-12.489-6.943-17.931
						c0,0-8.195-20.906-15.059-37.994c-0.075-0.177-12.807-29.616-14.451-37.476c0,0-20.607-59.455-14.522-78.887
						c0,0-15.308-14.127,1.96-36.498c0,0-6.148-2.225-5.883-7.457c0,0,5.23,6.67,13.736,0.652
						c8.501-6.017,12.036-11.51,14.65-18.969c0,0,4.449,5.888,3.532,10.729c0,0,11.642-7.458,10.855-22.5
						c0,0,7.459,3.53,8.376,10.072c0,0,7.324-14.392,5.625-27.08c0,0,8.113,4.316,8.238,18.314c0,0,4.061-7.325,4.843-22.633
						c0.786-15.306,6.868-25.118,8.047-30.808c1.176-5.689,4.708-9.812,4.708-18.447c0,0,8.047,11.774,6.676,21.39
						c-1.375,9.615-1.771,32.379-3.34,41.799c-1.566,9.418-4.709,16.286-5.883,18.055c0,0,4.316,10.203,19.031,10.793
						c0,0,5.102,10.204-3.336,16.875c-8.434,6.672-20.8,11.969-26.099,17.658c-5.297,5.695-6.277,7.852-10.202,7.852
						s-2.948,3.141,0.587,4.906c3.53,1.765,7.78,0.588,10.66,2.355c2.879,1.766,9.358,9.027,9.358,14.521s3.333,9.812-8.441,9.812
						s-21.588-1.178-20.211,10.398c1.373,11.582,10.988,34.145,14.326,41.799c2.135,4.906,7.979,17.624,12.006,28.352l0,0
						l20.908,52.415c2.738,9.611,4.207,19.762,4.207,30.26c0,60.435-48.607,109.426-108.57,109.426
						c-53.684,0-98.246-39.265-106.994-90.851h-0.432c-9.363-29.302-40.104-47.474-71.509-41.157
						c-22.859,4.598-40.146,20.97-46.632,41.31c-8.811,51.51-53.338,90.698-106.967,90.698c-59.963,0-108.57-48.991-108.57-109.423
						c0-10.501,1.471-20.651,4.209-30.263C-335.609,479.647-326.211,446.311-348.021,437.019z"/>
				</g>
			</g>
		</g>
	</g>
</g>
</svg>
