<?xml version="1.0" encoding="utf-8"?>
<!-- Generator: Adobe Illustrator 15.0.0, SVG Export Plug-In . SVG Version: 6.00 Build 0)  -->
<!DOCTYPE svg PUBLIC "-//W3C//DTD SVG 1.1//EN" "http://www.w3.org/Graphics/SVG/1.1/DTD/svg11.dtd">
<svg version="1.1" xmlns="http://www.w3.org/2000/svg" xmlns:xlink="http://www.w3.org/1999/xlink" x="0px" y="0px" width="800px"
	 height="800px" viewBox="0 0 800 800" enable-background="new 0 0 800 800" xml:space="preserve">
<g id="Layer_1" display="none">
	<circle display="inline" fill="#FF0000" cx="400" cy="400" r="350"/>
	<g display="inline">
		<g>
			<g>
				<polygon fill="#FFFFFF" points="557.496,434.855 548.294,434.865 502.642,397.903 511.844,397.892 				"/>
				<polygon fill="#FFFFFF" points="502.687,434.797 511.889,434.785 557.452,397.712 548.25,397.722 				"/>
			</g>
			<g>
				<polygon fill="#FFFFFF" points="615.581,434.784 606.38,434.797 560.727,397.832 569.93,397.821 				"/>
				<polygon fill="#FFFFFF" points="560.772,434.727 569.975,434.715 615.537,397.641 606.336,397.653 				"/>
			</g>
			<g>
				<polygon fill="#FFFFFF" points="673.662,434.715 664.459,434.727 618.806,397.762 628.01,397.751 				"/>
				<polygon fill="#FFFFFF" points="618.852,434.655 628.056,434.646 673.618,397.573 664.415,397.583 				"/>
			</g>
			
				<rect x="490.78" y="383.119" transform="matrix(1 -0.0012 0.0012 1 -0.4704 0.7026)" fill="#FFFFFF" width="186.823" height="16.953"/>
			
				<rect x="490.831" y="432.18" transform="matrix(1 -0.0012 0.0012 1 -0.5246 0.7058)" fill="#FFFFFF" width="186.822" height="5.237"/>
		</g>
		<polygon fill="#FFFFFF" points="680.669,377.134 645.456,316.312 522.748,316.459 487.681,377.367 		"/>
		<g>
			<g>
				
					<rect x="158.595" y="325.491" transform="matrix(1 -0.0012 0.0012 1 -0.5437 0.2664)" fill="#FFFFFF" width="124.963" height="252.779"/>
				<polygon fill="#FFFFFF" points="287.148,320.379 262.955,257.093 178.729,257.195 154.688,320.538 				"/>
			</g>
			
				<rect x="119.334" y="365.994" transform="matrix(1 -0.0013 0.0013 1 -0.468 0.1623)" fill="#FFFFFF" width="16.532" height="5.237"/>
			
				<rect x="119.357" y="384.688" transform="matrix(1 -0.0012 0.0012 1 -0.4804 0.1586)" fill="#FFFFFF" width="16.532" height="5.236"/>
			
				<rect x="119.38" y="403.383" transform="matrix(1 -0.0012 0.0012 1 -0.5036 0.1587)" fill="#FFFFFF" width="16.531" height="5.235"/>
			
				<rect x="119.402" y="422.076" transform="matrix(1 -0.0012 0.0012 1 -0.5267 0.1587)" fill="#FFFFFF" width="16.532" height="5.237"/>
			
				<rect x="119.425" y="440.77" transform="matrix(1 -0.0012 0.0012 1 -0.5499 0.1588)" fill="#FFFFFF" width="16.531" height="5.235"/>
			
				<rect x="119.447" y="459.462" transform="matrix(1 -0.0012 0.0012 1 -0.5731 0.1588)" fill="#FFFFFF" width="16.532" height="5.237"/>
			
				<rect x="119.469" y="478.158" transform="matrix(1 -0.0011 0.0011 1 -0.5395 0.1436)" fill="#FFFFFF" width="16.532" height="5.234"/>
			
				<rect x="119.492" y="496.85" transform="matrix(1 -0.0012 0.0012 1 -0.59 0.1513)" fill="#FFFFFF" width="16.531" height="5.237"/>
			
				<rect x="119.514" y="515.544" transform="matrix(1 -0.0012 0.0012 1 -0.6121 0.1513)" fill="#FFFFFF" width="16.532" height="5.237"/>
			
				<rect x="119.537" y="534.238" transform="matrix(1 -0.0011 0.0011 1 -0.6025 0.1437)" fill="#FFFFFF" width="16.532" height="5.237"/>
			<polygon fill="#FFFFFF" points="161.48,327.669 134.316,356.23 134.582,578.374 143.785,578.364 143.519,356.219 
				170.684,327.659 			"/>
		</g>
		<path fill="#FFFFFF" d="M470.361,262.926l-0.021-18.234l-15.529,0.019c-9.67-7.122-27.857-12.246-49.36-13.368l-0.013-9.717
			l-18.232,0.021l0.012,9.717c-21.501,1.173-39.675,6.34-49.33,13.487l-15.528,0.02l0.022,18.234l8.066-0.01l0.072,59.261
			l-8.066,0.01l0.022,18.236l18.396-0.021l21.061,13.485l69.098-0.084l21.027-13.536l18.396-0.023l-0.021-18.237l-8.066,0.011
			l-0.071-59.262L470.361,262.926z"/>
		<path fill="#FFFFFF" d="M469.735,564.151l-33.352-221.581l-11.922,0.013l7.493,49.787l-70.744,0.085l7.375-49.804l-11.923,0.014
			l-32.814,221.661l-18.287,0.021l0.018,14.025l182.344-0.219l-0.017-14.025L469.735,564.151z M450.741,517.184l-108.013,0.131
			l8.932-60.326l90.006-0.107L450.741,517.184z M433.224,400.785l7.173,47.68l-87.492,0.106l7.061-47.697L433.224,400.785z
			 M341.483,525.731l110.526-0.132l5.802,38.566l-122.041,0.146L341.483,525.731z"/>
		<g>
			<rect x="529.32" y="504.172" fill="#FFFFFF" width="27.25" height="15.869"/>
			<rect x="529.32" y="483.966" fill="#FFFFFF" width="27.25" height="15.871"/>
			<rect x="529.32" y="463.76" fill="#FFFFFF" width="27.25" height="15.871"/>
			<rect x="529.32" y="544.584" fill="#FFFFFF" width="27.25" height="15.871"/>
			<rect x="529.32" y="524.378" fill="#FFFFFF" width="27.25" height="15.871"/>
			<rect x="529.32" y="564.789" fill="#FFFFFF" width="27.25" height="13.585"/>
			<rect x="502.642" y="441.857" fill="#FFFFFF" width="22.522" height="136.517"/>
			<path fill="#FFFFFF" d="M560.727,441.857v136.517h105.982V441.857H560.727z M650.026,483.966h-24.54v-24.542h24.54V483.966z"/>
			<rect x="529.32" y="441.857" fill="#FFFFFF" width="27.25" height="17.566"/>
		</g>
	</g>
</g>
<g id="Layer_2" display="none">
	<circle display="inline" fill="#009696" cx="400" cy="400" r="350"/>
	<g display="inline">
		<g>
			<g>
				<polygon fill="#FFFFFF" points="557.496,434.855 548.294,434.865 502.642,397.903 511.844,397.892 				"/>
				<polygon fill="#FFFFFF" points="502.687,434.797 511.889,434.785 557.452,397.712 548.25,397.722 				"/>
			</g>
			<g>
				<polygon fill="#FFFFFF" points="615.581,434.784 606.38,434.797 560.727,397.832 569.93,397.821 				"/>
				<polygon fill="#FFFFFF" points="560.772,434.727 569.975,434.715 615.537,397.641 606.336,397.653 				"/>
			</g>
			<g>
				<polygon fill="#FFFFFF" points="673.662,434.715 664.459,434.727 618.806,397.762 628.01,397.751 				"/>
				<polygon fill="#FFFFFF" points="618.852,434.655 628.056,434.646 673.618,397.573 664.415,397.583 				"/>
			</g>
			
				<rect x="490.78" y="383.119" transform="matrix(1 -0.0012 0.0012 1 -0.4704 0.7026)" fill="#FFFFFF" width="186.823" height="16.953"/>
			
				<rect x="490.831" y="432.18" transform="matrix(1 -0.0012 0.0012 1 -0.5246 0.7058)" fill="#FFFFFF" width="186.822" height="5.237"/>
		</g>
		<polygon fill="#FFFFFF" points="680.669,377.134 645.456,316.312 522.748,316.459 487.681,377.367 		"/>
		<g>
			<g>
				
					<rect x="158.595" y="325.491" transform="matrix(1 -0.0012 0.0012 1 -0.5437 0.2664)" fill="#FFFFFF" width="124.963" height="252.779"/>
				<polygon fill="#FFFFFF" points="287.148,320.379 262.955,257.093 178.729,257.195 154.688,320.538 				"/>
			</g>
			
				<rect x="119.334" y="365.994" transform="matrix(1 -0.0013 0.0013 1 -0.468 0.1623)" fill="#FFFFFF" width="16.532" height="5.237"/>
			
				<rect x="119.357" y="384.688" transform="matrix(1 -0.0012 0.0012 1 -0.4804 0.1586)" fill="#FFFFFF" width="16.532" height="5.236"/>
			
				<rect x="119.38" y="403.383" transform="matrix(1 -0.0012 0.0012 1 -0.5036 0.1587)" fill="#FFFFFF" width="16.531" height="5.235"/>
			
				<rect x="119.402" y="422.076" transform="matrix(1 -0.0012 0.0012 1 -0.5267 0.1587)" fill="#FFFFFF" width="16.532" height="5.237"/>
			
				<rect x="119.425" y="440.77" transform="matrix(1 -0.0012 0.0012 1 -0.5499 0.1588)" fill="#FFFFFF" width="16.531" height="5.235"/>
			
				<rect x="119.447" y="459.462" transform="matrix(1 -0.0012 0.0012 1 -0.5731 0.1588)" fill="#FFFFFF" width="16.532" height="5.237"/>
			
				<rect x="119.469" y="478.158" transform="matrix(1 -0.0011 0.0011 1 -0.5395 0.1436)" fill="#FFFFFF" width="16.532" height="5.234"/>
			
				<rect x="119.492" y="496.85" transform="matrix(1 -0.0012 0.0012 1 -0.59 0.1513)" fill="#FFFFFF" width="16.531" height="5.237"/>
			
				<rect x="119.514" y="515.544" transform="matrix(1 -0.0012 0.0012 1 -0.6121 0.1513)" fill="#FFFFFF" width="16.532" height="5.237"/>
			
				<rect x="119.537" y="534.238" transform="matrix(1 -0.0011 0.0011 1 -0.6025 0.1437)" fill="#FFFFFF" width="16.532" height="5.237"/>
			<polygon fill="#FFFFFF" points="161.48,327.669 134.316,356.23 134.582,578.374 143.785,578.364 143.519,356.219 
				170.684,327.659 			"/>
		</g>
		<path fill="#FFFFFF" d="M470.361,262.926l-0.021-18.234l-15.529,0.019c-9.67-7.122-27.857-12.246-49.36-13.368l-0.013-9.717
			l-18.232,0.021l0.012,9.717c-21.501,1.173-39.675,6.34-49.33,13.487l-15.528,0.02l0.022,18.234l8.066-0.01l0.072,59.261
			l-8.066,0.01l0.022,18.236l18.396-0.021l21.061,13.485l69.098-0.084l21.027-13.536l18.396-0.023l-0.021-18.237l-8.066,0.011
			l-0.071-59.262L470.361,262.926z"/>
		<path fill="#FFFFFF" d="M469.735,564.151l-33.352-221.581l-11.922,0.013l7.493,49.787l-70.744,0.085l7.375-49.804l-11.923,0.014
			l-32.814,221.661l-18.287,0.021l0.018,14.025l182.344-0.219l-0.017-14.025L469.735,564.151z M450.741,517.184l-108.013,0.131
			l8.932-60.326l90.006-0.107L450.741,517.184z M433.224,400.785l7.173,47.68l-87.492,0.106l7.061-47.697L433.224,400.785z
			 M341.483,525.731l110.526-0.132l5.802,38.566l-122.041,0.146L341.483,525.731z"/>
		<g>
			<rect x="529.32" y="504.172" fill="#FFFFFF" width="27.25" height="15.869"/>
			<rect x="529.32" y="483.966" fill="#FFFFFF" width="27.25" height="15.871"/>
			<rect x="529.32" y="463.76" fill="#FFFFFF" width="27.25" height="15.871"/>
			<rect x="529.32" y="544.584" fill="#FFFFFF" width="27.25" height="15.871"/>
			<rect x="529.32" y="524.378" fill="#FFFFFF" width="27.25" height="15.871"/>
			<rect x="529.32" y="564.789" fill="#FFFFFF" width="27.25" height="13.585"/>
			<rect x="502.642" y="441.857" fill="#FFFFFF" width="22.522" height="136.517"/>
			<path fill="#FFFFFF" d="M560.727,441.857v136.517h105.982V441.857H560.727z M650.026,483.966h-24.54v-24.542h24.54V483.966z"/>
			<rect x="529.32" y="441.857" fill="#FFFFFF" width="27.25" height="17.566"/>
		</g>
	</g>
</g>
<g id="Layer_3">
	<g>
		<circle fill="#FFFFFF" cx="400" cy="400" r="350"/>
		<path fill="#009696" d="M400,760c-48.595,0-95.742-9.52-140.131-28.295c-42.87-18.132-81.369-44.088-114.427-77.146
			s-59.015-71.558-77.147-114.428C49.52,495.742,40,448.595,40,400c0-48.595,9.52-95.742,28.294-140.131
			c18.132-42.87,44.088-81.369,77.147-114.427s71.558-59.015,114.427-77.147C304.258,49.52,351.405,40,400,40
			c48.595,0,95.742,9.52,140.131,28.294c42.87,18.132,81.369,44.088,114.428,77.147s59.015,71.558,77.146,114.427
			C750.48,304.258,760,351.405,760,400c0,48.595-9.52,95.742-28.295,140.131c-18.132,42.87-44.089,81.369-77.146,114.428
			c-33.059,33.058-71.558,59.015-114.428,77.146C495.742,750.48,448.595,760,400,760z M400,60C212.523,60,60,212.523,60,400
			s152.523,340,340,340s340-152.523,340-340S587.477,60,400,60z"/>
	</g>
	<g>
		<g>
			<g>
				<polygon fill="#009696" points="557.496,434.855 548.294,434.865 502.642,397.903 511.844,397.892 				"/>
				<polygon fill="#009696" points="502.687,434.797 511.889,434.785 557.452,397.712 548.25,397.722 				"/>
			</g>
			<g>
				<polygon fill="#009696" points="615.581,434.784 606.38,434.797 560.727,397.832 569.93,397.821 				"/>
				<polygon fill="#009696" points="560.772,434.727 569.975,434.715 615.537,397.641 606.336,397.653 				"/>
			</g>
			<g>
				<polygon fill="#009696" points="673.662,434.715 664.459,434.727 618.806,397.762 628.01,397.751 				"/>
				<polygon fill="#009696" points="618.852,434.655 628.056,434.646 673.618,397.573 664.415,397.583 				"/>
			</g>
			
				<rect x="490.78" y="383.119" transform="matrix(1 -0.0012 0.0012 1 -0.4704 0.7026)" fill="#009696" width="186.823" height="16.953"/>
			
				<rect x="490.831" y="432.18" transform="matrix(1 -0.0012 0.0012 1 -0.5246 0.7058)" fill="#009696" width="186.822" height="5.237"/>
		</g>
		<polygon fill="#009696" points="680.669,377.134 645.456,316.312 522.748,316.459 487.681,377.367 		"/>
		<g>
			<g>
				
					<rect x="158.595" y="325.491" transform="matrix(1 -0.0012 0.0012 1 -0.5437 0.2664)" fill="#009696" width="124.963" height="252.779"/>
				<polygon fill="#009696" points="287.148,320.379 262.955,257.093 178.729,257.195 154.688,320.538 				"/>
			</g>
			
				<rect x="119.334" y="365.994" transform="matrix(1 -0.0013 0.0013 1 -0.468 0.1623)" fill="#009696" width="16.532" height="5.237"/>
			
				<rect x="119.357" y="384.688" transform="matrix(1 -0.0012 0.0012 1 -0.4804 0.1586)" fill="#009696" width="16.532" height="5.236"/>
			
				<rect x="119.38" y="403.383" transform="matrix(1 -0.0012 0.0012 1 -0.5036 0.1587)" fill="#009696" width="16.531" height="5.235"/>
			
				<rect x="119.402" y="422.076" transform="matrix(1 -0.0012 0.0012 1 -0.5267 0.1587)" fill="#009696" width="16.532" height="5.237"/>
			
				<rect x="119.425" y="440.77" transform="matrix(1 -0.0012 0.0012 1 -0.5499 0.1588)" fill="#009696" width="16.531" height="5.235"/>
			
				<rect x="119.447" y="459.462" transform="matrix(1 -0.0012 0.0012 1 -0.5731 0.1588)" fill="#009696" width="16.532" height="5.237"/>
			
				<rect x="119.469" y="478.158" transform="matrix(1 -0.0011 0.0011 1 -0.5395 0.1436)" fill="#009696" width="16.532" height="5.234"/>
			
				<rect x="119.492" y="496.85" transform="matrix(1 -0.0012 0.0012 1 -0.59 0.1513)" fill="#009696" width="16.531" height="5.237"/>
			
				<rect x="119.514" y="515.544" transform="matrix(1 -0.0012 0.0012 1 -0.6121 0.1513)" fill="#009696" width="16.532" height="5.237"/>
			
				<rect x="119.537" y="534.238" transform="matrix(1 -0.0011 0.0011 1 -0.6025 0.1437)" fill="#009696" width="16.532" height="5.237"/>
			<polygon fill="#009696" points="161.48,327.669 134.316,356.23 134.582,578.374 143.785,578.364 143.519,356.219 
				170.684,327.659 			"/>
		</g>
		<path fill="#009696" d="M470.361,262.926l-0.021-18.234l-15.529,0.019c-9.67-7.122-27.857-12.246-49.36-13.368l-0.013-9.717
			l-18.232,0.021l0.012,9.717c-21.501,1.173-39.675,6.34-49.33,13.487l-15.528,0.02l0.022,18.234l8.066-0.01l0.072,59.261
			l-8.066,0.01l0.022,18.236l18.396-0.021l21.061,13.485l69.098-0.084l21.027-13.536l18.396-0.023l-0.021-18.237l-8.066,0.011
			l-0.071-59.262L470.361,262.926z"/>
		<path fill="#009696" d="M469.735,564.151l-33.352-221.581l-11.922,0.013l7.493,49.787l-70.744,0.085l7.375-49.804l-11.923,0.014
			l-32.814,221.661l-18.287,0.021l0.018,14.025l182.344-0.219l-0.017-14.025L469.735,564.151z M450.741,517.184l-108.013,0.131
			l8.932-60.326l90.006-0.107L450.741,517.184z M433.224,400.785l7.173,47.68l-87.492,0.106l7.061-47.697L433.224,400.785z
			 M341.483,525.731l110.526-0.132l5.802,38.566l-122.041,0.146L341.483,525.731z"/>
		<g>
			<rect x="529.32" y="504.172" fill="#009696" width="27.25" height="15.869"/>
			<rect x="529.32" y="483.966" fill="#009696" width="27.25" height="15.871"/>
			<rect x="529.32" y="463.76" fill="#009696" width="27.25" height="15.871"/>
			<rect x="529.32" y="544.584" fill="#009696" width="27.25" height="15.871"/>
			<rect x="529.32" y="524.378" fill="#009696" width="27.25" height="15.871"/>
			<rect x="529.32" y="564.789" fill="#009696" width="27.25" height="13.585"/>
			<rect x="502.642" y="441.857" fill="#009696" width="22.522" height="136.517"/>
			<path fill="#009696" d="M560.727,441.857v136.517h105.982V441.857H560.727z M650.026,483.966h-24.54v-24.542h24.54V483.966z"/>
			<rect x="529.32" y="441.857" fill="#009696" width="27.25" height="17.566"/>
		</g>
	</g>
</g>
</svg>
